<svg width="1520" height="352" viewBox="0 0 1520 352" fill="none" xmlns="http://www.w3.org/2000/svg">
<path d="M740.331 111.422C724.584 128.886 716.71 150.807 716.71 177.185C716.43 189.376 718.381 201.502 722.444 212.827C726.507 224.152 732.597 234.438 740.343 243.06C748.09 251.681 757.331 258.458 767.504 262.977C777.678 267.496 788.571 269.664 799.52 269.348C813.901 269.483 828.125 266.013 841.138 259.194C854.189 252.289 863.613 245.317 869.41 238.277L878.074 228.123L923.522 283.428C922.427 285.222 920.847 287.591 918.779 290.502C914.256 296.041 909.39 301.22 904.218 306.003C887.276 322.993 866.814 335.041 844.664 341.068C829.97 345.642 814.777 347.92 799.52 347.837C754.548 347.837 716.417 331.094 685.125 297.609C653.833 264.124 638.177 223.983 638.157 177.185C638.157 130.567 653.803 90.516 685.094 57.0309C716.386 23.5457 754.528 6.79188 799.52 6.76932C814.477 6.69544 829.368 8.97436 843.752 13.5385C855.894 17.176 867.541 22.6177 878.378 29.717C886.698 35.4151 894.661 41.7363 902.211 48.637C907.644 53.3768 912.562 58.8063 916.864 64.8155L921.485 71.3139L873.818 126.585C872.997 125.4 871.933 123.877 870.565 121.982C867.681 118.455 864.583 115.152 861.293 112.099C856.518 107.481 851.437 103.273 846.093 99.5078C831.911 90.4188 815.882 85.5032 799.52 85.2247C775.828 85.2247 756.109 93.957 740.362 111.422" fill="#14161F"/>
<path d="M944.68 15.9756H1184.57V94.4648H1103.79V338.394H1025.24V94.4648H944.68V15.9756Z" fill="#14161F"/>
<path d="M1468.32 57.0311C1499.63 90.4936 1515.29 130.545 1515.29 177.185C1515.29 223.825 1499.63 263.887 1468.32 297.373C1437.05 330.835 1398.96 347.578 1354.05 347.6C1309.14 347.623 1271.03 330.88 1239.74 297.373C1208.33 263.842 1192.63 223.78 1192.65 177.185C1192.67 130.59 1208.32 90.5388 1239.59 57.0311C1270.9 23.5234 1309 6.76953 1353.89 6.76953C1398.78 6.76953 1436.93 23.5234 1468.32 57.0311ZM1296.44 111.422C1280.97 128.886 1273.23 150.807 1273.21 177.185C1273.19 203.562 1280.93 225.517 1296.44 243.05C1311.75 259.897 1332.41 269.345 1353.94 269.345C1375.47 269.345 1396.13 259.897 1411.44 243.05C1426.84 225.517 1434.55 203.562 1434.55 177.185C1434.55 150.807 1426.84 128.886 1411.44 111.422C1396.09 94.6472 1375.45 85.2491 1353.94 85.2491C1332.43 85.2491 1311.79 94.6472 1296.44 111.422Z" fill="#14161F"/>
<path d="M465.12 264.643H613.958V338.394H386.566V15.9756H609.915V89.7264H465.12V140.326H576.81V209.576H465.12V264.643Z" fill="#14161F"/>
<path d="M165.194 260.142L84.6336 147.299V338.394H6.07999V15.9756H76.3648L165.194 142.797L254.266 15.9756H324.52V338.394H245.966V147.299L165.194 260.142Z" fill="#14161F"/>
</svg>
