<svg width="1600" height="220" viewBox="0 0 1600 220" fill="none" xmlns="http://www.w3.org/2000/svg">
<rect width="3206" height="54" transform="translate(-794.293 -57) rotate(5)" fill="#FFF557"/>
<path d="M-227.968 18.7104L-219.307 9.56081L-216.557 9.80146L-218.326 30.0299L-221.5 29.7522L-220.212 15.0252L-228.398 23.6194L-234.953 13.7356L-236.241 28.4625L-239.415 28.1848L-237.645 7.95643L-234.909 8.19585L-227.968 18.7104ZM-201.359 25.5443L-212.193 24.5965C-212.128 25.5877 -211.722 26.476 -210.976 27.2615C-210.22 28.0478 -209.283 28.4899 -208.164 28.5878C-207.355 28.6586 -206.587 28.541 -205.859 28.2351C-205.121 27.9301 -204.592 27.6163 -204.27 27.2939L-203.785 26.7961L-202.073 28.8364C-202.136 28.9067 -202.235 29.007 -202.37 29.1374C-202.494 29.2592 -202.764 29.4678 -203.178 29.7632C-203.591 30.0492 -204.026 30.3002 -204.48 30.5163C-204.934 30.723 -205.519 30.904 -206.234 31.0594C-206.938 31.2062 -207.657 31.2476 -208.391 31.1834C-210.356 31.0114 -211.991 30.1435 -213.294 28.5796C-214.588 27.0071 -215.146 25.2099 -214.969 23.188C-214.799 21.2414 -213.962 19.6373 -212.459 18.3758C-210.945 17.1058 -209.22 16.5555 -207.282 16.725C-205.336 16.8953 -203.775 17.6857 -202.6 19.0962C-201.415 20.4981 -200.908 22.1724 -201.078 24.1191L-201.359 25.5443ZM-207.498 19.1936C-208.542 19.1023 -209.449 19.3357 -210.218 19.8938C-210.976 20.4434 -211.521 21.1965 -211.851 22.1531L-203.824 22.8554C-203.908 21.8625 -204.276 21.0296 -204.928 20.3566C-205.579 19.6742 -206.436 19.2866 -207.498 19.1936ZM-198.271 29.9082C-199.575 28.3443 -200.142 26.5937 -199.972 24.6564C-199.802 22.7098 -198.939 21.0795 -197.384 19.7658C-195.819 18.4528 -194.064 17.8815 -192.117 18.0518C-191.035 18.1464 -190.05 18.4695 -189.16 19.0212C-188.269 19.5635 -187.642 20.0827 -187.278 20.5789L-186.729 21.2949L-188.769 23.0069C-188.85 22.8482 -188.98 22.6521 -189.159 22.4185C-189.327 22.1764 -189.719 21.8388 -190.335 21.4059C-190.942 20.9738 -191.612 20.7256 -192.345 20.6614C-193.521 20.5586 -194.58 20.916 -195.524 21.7337C-196.457 22.5523 -196.981 23.6104 -197.095 24.9082C-197.207 26.1966 -196.875 27.3249 -196.097 28.2931C-195.31 29.2622 -194.329 29.7982 -193.154 29.9011C-192.42 29.9652 -191.718 29.8419 -191.046 29.5311C-190.365 29.2211 -189.868 28.9045 -189.556 28.5812L-189.071 28.0834L-187.359 30.1237C-187.422 30.194 -187.517 30.2947 -187.642 30.4259C-187.766 30.5477 -188.031 30.7567 -188.436 31.053C-188.84 31.3398 -189.26 31.5921 -189.696 31.8098C-190.131 32.0181 -190.687 32.2016 -191.365 32.3603C-192.041 32.5096 -192.713 32.555 -193.381 32.4966C-195.327 32.3263 -196.958 31.4635 -198.271 29.9082ZM-186.317 21.4731L-186.09 18.8776L-173.677 19.9636L-173.904 22.5592L-178.672 22.142L-179.658 33.4129L-182.535 33.1612L-181.549 21.8903L-186.317 21.4731ZM-163.721 31.1257C-162.787 30.3072 -162.264 29.2537 -162.151 27.9653C-162.038 26.6676 -162.37 25.5345 -163.147 24.5663C-163.925 23.598 -164.902 23.0625 -166.077 22.9596C-167.253 22.8568 -168.312 23.2142 -169.255 24.0319C-170.189 24.8504 -170.713 25.9086 -170.827 27.2064C-170.939 28.4947 -170.607 29.623 -169.829 30.5913C-169.042 31.5604 -168.061 32.0964 -166.885 32.1992C-165.71 32.3021 -164.655 31.9442 -163.721 31.1257ZM-172.003 32.2063C-173.307 30.6424 -173.874 28.8918 -173.704 26.9546C-173.534 25.0079 -172.671 23.3777 -171.116 22.0639C-169.551 20.751 -167.795 20.1796 -165.849 20.3499C-163.902 20.5203 -162.277 21.3874 -160.973 22.9513C-159.66 24.516 -159.089 26.2717 -159.259 28.2183C-159.429 30.1556 -160.296 31.7807 -161.861 33.0937C-163.415 34.3981 -165.166 34.9651 -167.113 34.7948C-169.059 34.6245 -170.689 33.7616 -172.003 32.2063ZM-155.009 32.954L-154.008 33.0416C-153.946 32.9901 -153.859 32.9078 -153.744 32.7946C-153.62 32.6728 -153.407 32.4024 -153.105 31.9834C-152.794 31.5653 -152.517 31.111 -152.275 30.6204C-152.023 30.1213 -151.78 29.4602 -151.547 28.6372C-151.305 27.8151 -151.143 26.9432 -151.062 26.0216L-150.708 21.9731L-140.594 22.858L-141.58 34.1289L-139.563 34.3053L-140.094 40.371L-142.971 40.1193L-142.668 36.6491L-152.345 35.8025L-152.648 39.2727L-155.54 39.0197L-155.009 32.954ZM-148.043 24.8216L-148.171 26.2746C-148.251 27.1962 -148.408 28.0638 -148.64 28.8774C-148.863 29.6918 -149.116 30.3614 -149.398 30.8863C-149.671 31.4026 -149.942 31.8479 -150.212 32.2223C-150.472 32.5976 -150.685 32.8632 -150.85 33.0193L-151.116 33.2946L-144.472 33.8759L-143.713 25.2005L-148.043 24.8216ZM-134.358 23.4035L-123.665 24.339L-124.878 38.2055L-127.77 37.9525L-126.784 26.6816L-131.693 26.2521L-131.82 27.705C-132.052 30.3476 -132.446 32.4168 -133.003 33.9127C-133.55 35.4 -134.175 36.3734 -134.879 36.8331C-135.573 37.2935 -136.437 37.4785 -137.472 37.388C-137.726 37.3658 -137.996 37.3184 -138.284 37.2459C-138.562 37.1742 -138.778 37.1031 -138.933 37.0327L-139.182 36.9541L-138.942 34.2033C-138.564 34.3311 -138.235 34.4121 -137.954 34.4461C-137.361 34.498 -136.882 34.3788 -136.515 34.0887C-136.139 33.7994 -135.791 33.1192 -135.47 32.048C-135.138 30.9683 -134.886 29.4363 -134.712 27.452L-134.358 23.4035ZM-116.146 24.9969L-109.798 25.5523L-111.011 39.4187L-113.889 39.167L-113.51 34.8364L-116.543 34.571L-119.672 38.661L-122.846 38.3833L-119.396 33.8807C-119.47 33.8553 -119.569 33.804 -119.695 33.7266C-119.812 33.6501 -120.015 33.4854 -120.306 33.2325C-120.596 32.9703 -120.85 32.678 -121.068 32.3557C-121.277 32.0342 -121.461 31.6011 -121.622 31.0563C-121.773 30.503 -121.821 29.9207 -121.768 29.3094C-121.647 27.927 -121.073 26.8307 -120.045 26.0204C-119.006 25.2015 -117.707 24.8603 -116.146 24.9969ZM-112.89 27.755L-116.36 27.4514C-117.019 27.3938 -117.588 27.5667 -118.069 27.97C-118.549 28.3733 -118.819 28.9041 -118.876 29.5624C-118.934 30.2207 -118.761 30.7902 -118.358 31.2709C-117.954 31.7515 -117.423 32.0207 -116.765 32.0783L-113.295 32.3819L-112.89 27.755ZM-92.7628 28.9189C-91.4499 30.4836 -90.8786 32.2393 -91.0489 34.186C-91.2184 36.1233 -92.0855 37.7484 -93.6502 39.0613C-95.2047 40.3657 -96.9553 40.9327 -98.9019 40.7624C-99.579 40.7032 -100.233 40.5464 -100.865 40.2922C-101.486 40.0293 -102.001 39.7426 -102.41 39.4321C-102.818 39.1121 -103.184 38.8005 -103.508 38.4974C-103.831 38.1848 -104.059 37.9138 -104.19 37.6843L-104.434 37.3787L-102.393 35.6668C-102.361 35.7265 -102.311 35.8066 -102.244 35.9073C-102.168 36.0087 -102.018 36.1971 -101.796 36.4724C-101.563 36.7391 -101.319 36.9832 -101.064 37.2045C-100.798 37.4173 -100.451 37.6229 -100.023 37.8215C-99.5852 38.0114 -99.1357 38.1266 -98.6749 38.1669C-98.0166 38.2245 -97.4181 38.1536 -96.8795 37.9544C-96.34 37.7457 -95.914 37.4797 -95.6015 37.1565C-95.2795 36.834 -95.0088 36.5024 -94.7895 36.1614C-94.5607 35.8214 -94.4027 35.532 -94.3155 35.2932L-94.1694 34.9222L-100.531 34.3656L-100.317 31.9111L-94.0957 32.4554C-94.1079 32.3785 -94.1408 32.2666 -94.1942 32.1198C-94.2375 31.9644 -94.3512 31.6939 -94.5355 31.3082C-94.7103 30.9233 -94.9221 30.5826 -95.1709 30.286C-95.4096 29.9809 -95.7729 29.6932 -96.261 29.4231C-96.7389 29.1444 -97.274 28.9791 -97.8665 28.9273C-98.6 28.8631 -99.2966 28.9727 -99.9563 29.2561C-100.606 29.531 -101.081 29.821 -101.383 30.1263L-101.795 30.6162L-103.521 28.5747C-103.458 28.5044 -103.37 28.4126 -103.256 28.2994C-103.131 28.1776 -102.877 27.9819 -102.494 27.7122C-102.109 27.4332 -101.704 27.1891 -101.278 26.9799C-100.852 26.7708 -100.311 26.5955 -99.6543 26.4539C-98.9873 26.3038 -98.3153 26.2584 -97.6382 26.3176C-95.6915 26.4879 -94.0664 27.355 -92.7628 28.9189ZM-76.1509 28.496L-82.0032 33.8118L-76.9409 42.3995L-80.1148 42.1218L-84.0434 35.5238L-86.4182 37.6472L-86.7588 41.5405L-89.6506 41.2875L-88.4375 27.4211L-85.5457 27.6741L-86.0887 33.8808L-79.621 28.1924L-76.1509 28.496ZM-74.943 40.698C-76.2466 39.1341 -76.8136 37.3835 -76.6441 35.4463C-76.4738 33.4996 -75.611 31.8694 -74.0557 30.5556C-72.4909 29.2426 -70.7353 28.6713 -68.7886 28.8416C-67.7071 28.9362 -66.7214 29.2594 -65.8315 29.811C-64.9409 30.3533 -64.3135 30.8725 -63.9494 31.3687L-63.4008 32.0848L-65.4411 33.7968C-65.522 33.6381 -65.6517 33.4419 -65.8303 33.2084C-65.9986 32.9662 -66.3908 32.6286 -67.0068 32.1957C-67.6133 31.7636 -68.2834 31.5155 -69.0169 31.4513C-70.1924 31.3484 -71.2519 31.7059 -72.1952 32.5236C-73.1291 33.3421 -73.6529 34.4002 -73.7664 35.698C-73.8791 36.9864 -73.5467 38.1147 -72.7691 39.083C-71.9821 40.0521 -71.0008 40.588 -69.8253 40.6909C-69.0917 40.7551 -68.3892 40.6317 -67.7176 40.3209C-67.0366 40.0109 -66.5399 39.6943 -66.2273 39.371L-65.7431 38.8732L-64.0311 40.9135C-64.0941 40.9838 -64.1882 41.0846 -64.3134 41.2158C-64.4378 41.3375 -64.7024 41.5465 -65.1074 41.8428C-65.5116 42.1296 -65.9316 42.3819 -66.3676 42.5996C-66.8028 42.8079 -67.359 42.9914 -68.0362 43.1501C-68.7126 43.2994 -69.3846 43.3449 -70.0523 43.2864C-71.999 43.1161 -73.6292 42.2533 -74.943 40.698ZM-58.6582 32.6418L-59.6443 43.9127L-62.5361 43.6597L-61.3229 29.7933L-48.7543 30.8929L-49.9674 44.7594L-52.8592 44.5064L-51.8731 33.2354L-58.6582 32.6418ZM-33.7054 40.2121L-44.539 39.2643C-44.4741 40.2555 -44.0685 41.1438 -43.3223 41.9293C-42.5666 42.7156 -41.6293 43.1577 -40.5102 43.2556C-39.7014 43.3264 -38.933 43.2088 -38.205 42.9029C-37.4676 42.5979 -36.938 42.2841 -36.616 41.9617L-36.1318 41.4639L-34.4198 43.5042C-34.4828 43.5745 -34.5816 43.6748 -34.7162 43.8052C-34.8406 43.927 -35.1099 44.1356 -35.5243 44.431C-35.9379 44.717 -36.372 44.968 -36.8268 45.1841C-37.2808 45.3907 -37.8652 45.5718 -38.5801 45.7272C-39.2847 45.874 -40.0037 45.9154 -40.7373 45.8512C-42.7027 45.6792 -44.3372 44.8113 -45.6408 43.2474C-46.9341 41.6749 -47.4923 39.8777 -47.3155 37.8558C-47.1451 35.9092 -46.3083 34.3051 -44.8049 33.0436C-43.2914 31.7736 -41.5659 31.2233 -39.6287 31.3928C-37.682 31.5631 -36.1213 32.3535 -34.9464 33.764C-33.7614 35.1659 -33.254 36.8402 -33.4243 38.7869L-33.7054 40.2121ZM-39.8446 33.8614C-40.8885 33.77 -41.795 34.0035 -42.564 34.5616C-43.3228 35.1112 -43.8672 35.8643 -44.1973 36.8209L-36.1708 37.5231C-36.2545 36.5303 -36.6223 35.6974 -37.2741 35.0244C-37.9251 34.342 -38.782 33.9543 -39.8446 33.8614ZM-24.7255 47.252C-25.2427 47.2068 -25.7405 47.1016 -26.2188 46.9366C-26.6971 46.7716 -27.1025 46.5845 -27.4348 46.3753C-27.7663 46.1568 -28.0602 45.9416 -28.3164 45.7296C-28.5625 45.5091 -28.7417 45.3371 -28.8541 45.2135L-29.033 44.9847L-29.7032 52.6444L-32.595 52.3914L-30.8511 32.4592L-27.9593 32.7122L-28.0988 34.3062C-27.9556 34.1861 -27.757 34.0281 -27.503 33.8324C-27.2396 33.6375 -26.7024 33.4002 -25.8914 33.1206C-25.0804 32.8409 -24.2705 32.7364 -23.4617 32.8072C-21.6279 32.9676 -20.1003 33.812 -18.8789 35.3403C-17.6473 36.86 -17.1191 38.6214 -17.2944 40.6245C-17.4696 42.6276 -18.2961 44.2752 -19.7737 45.5673C-21.2411 46.8509 -22.8917 47.4125 -24.7255 47.252ZM-21.1707 37.0018C-21.9381 36.025 -22.8719 35.4884 -23.9722 35.3922C-25.0725 35.2959 -26.0853 35.6622 -27.0107 36.4909C-27.936 37.3197 -28.4546 38.3735 -28.5665 39.6525C-28.6776 40.9221 -28.3495 42.0453 -27.5821 43.0221C-26.8147 43.999 -25.8808 44.5355 -24.7805 44.6318C-23.6803 44.728 -22.6674 44.3618 -21.7421 43.5331C-20.8167 42.7043 -20.2985 41.6551 -20.1874 40.3856C-20.0755 39.1066 -20.4033 37.9787 -21.1707 37.0018ZM-16.3501 36.3433L-16.1231 33.7478L-3.70954 34.8338L-3.93662 37.4293L-8.70454 37.0122L-9.69062 48.2831L-12.5683 48.0314L-11.5822 36.7604L-16.3501 36.3433ZM7.84462 35.8447L10.4402 36.0717L9.22702 49.9382L6.33523 49.6852L7.13125 40.5867L-0.887178 49.0533L-3.48273 48.8262L-2.26957 34.9598L0.622212 35.2128L-0.173807 44.3113L7.84462 35.8447ZM22.2568 40.7444C22.2008 41.3839 21.9732 41.9278 21.5739 42.3761C21.1839 42.8253 20.799 43.1091 20.4191 43.2275L19.8455 43.4474C19.9191 43.4727 20.015 43.5143 20.1331 43.572C20.2606 43.6306 20.4671 43.7623 20.7524 43.9673C21.0479 44.1638 21.3025 44.3945 21.5162 44.6596C21.7402 44.9161 21.9324 45.2646 22.0928 45.705C22.2627 46.1463 22.3246 46.6303 22.2785 47.1569C22.1773 48.3136 21.5737 49.2558 20.4677 49.9835C19.3718 50.7026 17.9305 50.9839 16.1437 50.8276C15.4666 50.7684 14.8205 50.6266 14.2052 50.4022C13.5993 50.1786 13.0998 49.9311 12.7066 49.6598C12.3134 49.3885 11.9719 49.1217 11.6821 48.8595C11.3931 48.5878 11.1808 48.3608 11.0452 48.1783L10.8711 47.893L12.9114 46.1811C13.0128 46.3226 13.1488 46.5003 13.3196 46.7143C13.4998 46.929 13.891 47.2238 14.4931 47.5987C15.1054 47.965 15.7313 48.1761 16.3708 48.2321C17.3301 48.316 18.0651 48.2002 18.576 47.8848C19.0963 47.5703 19.3799 47.145 19.4268 46.6089C19.4737 46.0729 19.2682 45.6048 18.8105 45.2047C18.3621 44.8053 17.6583 44.5637 16.6991 44.4798L15.1051 44.3403L15.3075 42.0269L16.9015 42.1664C17.6538 42.2322 18.2403 42.1366 18.6607 41.8796C19.082 41.6133 19.3128 41.2497 19.3532 40.7889C19.3943 40.3187 19.2301 39.9205 18.8607 39.5944C18.492 39.2589 17.9315 39.0583 17.1792 38.9925C16.6243 38.9439 16.0694 39.0043 15.5145 39.1737C14.9697 39.3346 14.5605 39.5167 14.2869 39.7202L13.8917 40.0126L12.1656 37.971C12.3105 37.8321 12.5197 37.6609 12.7934 37.4574C13.067 37.2539 13.6576 37.0023 14.5651 36.7027C15.4726 36.403 16.4201 36.2964 17.4075 36.3828C19.0062 36.5227 20.2373 37.0189 21.1009 37.8715C21.9644 38.7241 22.3497 39.6817 22.2568 40.7444ZM27.0769 49.0266L30.1097 49.2919C30.768 49.3495 31.3375 49.1766 31.8181 48.7733C32.2988 48.37 32.5679 47.8392 32.6255 47.1809C32.6831 46.5226 32.5103 45.9531 32.1069 45.4724C31.7036 44.9918 31.1728 44.7227 30.5145 44.6651L27.4816 44.3997L27.0769 49.0266ZM34.3771 43.8943C35.2582 44.8716 35.6378 46.0562 35.5161 47.448C35.3951 48.8304 34.816 49.9264 33.7786 50.7358C32.7506 51.5461 31.4561 51.883 29.895 51.7464L23.9703 51.2281L25.1835 37.3616L28.0753 37.6146L27.6964 41.9452L30.7292 42.2106C32.2903 42.3471 33.5063 42.9084 34.3771 43.8943ZM41.2223 38.7648L40.0092 52.6313L37.1174 52.3783L38.3305 38.5118L41.2223 38.7648ZM58.8574 40.3077L61.453 40.5348L60.2398 54.4012L57.348 54.1482L58.1441 45.0497L50.1256 53.5164L47.5301 53.2893L48.7432 39.4228L51.635 39.6758L50.839 48.7744L58.8574 40.3077ZM67.308 43.6624L67.535 41.0669L79.9486 42.1529L79.7215 44.7485L74.9536 44.3313L73.9675 55.6023L71.0898 55.3505L72.0759 44.0796L67.308 43.6624ZM81.3885 42.2789L88.0326 42.8602C89.3586 42.9762 90.3818 43.4116 91.1023 44.1664C91.8236 44.9118 92.1386 45.8064 92.0473 46.8503C91.9954 47.4427 91.8165 47.972 91.5104 48.4379C91.2145 48.8953 90.922 49.2062 90.6328 49.3704L90.2144 49.6038C90.2691 49.6276 90.3462 49.6675 90.4455 49.7236C90.5449 49.7796 90.7223 49.9183 90.9777 50.1397C91.234 50.3516 91.4506 50.5838 91.6275 50.8362C91.8146 51.08 91.9709 51.4064 92.0962 51.8153C92.2309 52.2251 92.2781 52.6604 92.2378 53.1212C92.1333 54.3155 91.6202 55.2514 90.6986 55.9289C89.7864 56.6072 88.5921 56.8817 87.1157 56.7526L80.1754 56.1454L81.3885 42.2789ZM87.6587 50.5458L83.6102 50.1916L83.2819 53.9439L87.3304 54.2981C87.9041 54.3483 88.375 54.2189 88.7431 53.91C89.1113 53.601 89.3205 53.1597 89.3707 52.5861C89.4159 52.0689 89.2806 51.6116 88.9647 51.2144C88.6489 50.8172 88.2135 50.5944 87.6587 50.5458ZM88.6561 47.9182C88.9425 47.6779 89.105 47.3367 89.1437 46.8947C89.1832 46.4433 89.0824 46.0792 88.8413 45.8022C88.601 45.5159 88.2598 45.3533 87.8178 45.3147L84.0656 44.9864L83.8126 47.8782L87.5648 48.2065C88.0068 48.2451 88.3706 48.149 88.6561 47.9182ZM103.616 54.5147C104.55 53.6962 105.074 52.6427 105.186 51.3544C105.3 50.0566 104.968 48.9236 104.19 47.9553C103.413 46.987 102.436 46.4515 101.26 46.3486C100.085 46.2458 99.0255 46.6032 98.0822 47.4209C97.1482 48.2394 96.6245 49.2976 96.511 50.5954C96.3982 51.8837 96.7307 53.0121 97.5083 53.9803C98.2953 54.9494 99.2766 55.4854 100.452 55.5882C101.628 55.6911 102.682 55.3332 103.616 54.5147ZM95.3344 55.5953C94.0308 54.0314 93.4638 52.2809 93.6333 50.3436C93.8036 48.3969 94.6664 46.7667 96.2217 45.4529C97.7864 44.14 99.5421 43.5686 101.489 43.739C103.435 43.9093 105.061 44.7764 106.364 46.3403C107.677 47.905 108.248 49.6607 108.078 51.6074C107.909 53.5446 107.042 55.1697 105.477 56.4827C103.922 57.7871 102.172 58.3541 100.225 58.1838C98.2784 58.0135 96.6482 57.1507 95.3344 55.5953ZM116.829 59.6365C116.312 59.5912 115.814 59.4861 115.336 59.321C114.858 59.156 114.452 58.9689 114.12 58.7598C113.788 58.5413 113.495 58.326 113.238 58.1141C112.992 57.8936 112.813 57.7215 112.701 57.598L112.522 57.3691L111.852 65.0288L108.96 64.7758L110.704 44.8436L113.595 45.0966L113.456 46.6907C113.599 46.5705 113.798 46.4126 114.052 46.2169C114.315 46.0219 114.852 45.7847 115.663 45.505C116.474 45.2253 117.284 45.1209 118.093 45.1916C119.927 45.3521 121.454 46.1964 122.676 47.7247C123.907 49.2444 124.436 51.0058 124.26 53.0089C124.085 55.012 123.259 56.6596 121.781 57.9518C120.314 59.2353 118.663 59.7969 116.829 59.6365ZM120.384 49.3863C119.617 48.4094 118.683 47.8729 117.583 47.7766C116.482 47.6804 115.469 48.0466 114.544 48.8753C113.619 49.7041 113.1 50.758 112.988 52.0369C112.877 53.3065 113.205 54.4297 113.973 55.4066C114.74 56.3834 115.674 56.92 116.774 57.0162C117.874 57.1125 118.887 56.7462 119.813 55.9175C120.738 55.0887 121.256 54.0396 121.367 52.77C121.479 51.491 121.151 50.3631 120.384 49.3863ZM134.333 60.8835L134.788 55.6783C133.77 56.2715 132.583 56.5088 131.229 56.3904C129.555 56.2439 128.264 55.624 127.355 54.5305C126.456 53.4285 126.083 52.0123 126.234 50.2819L126.588 46.2334L129.466 46.4851L129.112 50.5337C129.036 51.3988 129.25 52.1472 129.754 52.7788C130.268 53.4019 130.93 53.7487 131.738 53.8195C132.331 53.8713 132.899 53.8262 133.442 53.6842C133.995 53.5336 134.398 53.3699 134.65 53.193L135.028 52.9417L135.546 47.0171L138.424 47.2688L137.21 61.1353L134.333 60.8835ZM153.472 56.5881L142.639 55.6402C142.704 56.6314 143.109 57.5198 143.856 58.3052C144.611 59.0915 145.549 59.5337 146.668 59.6316C147.476 59.7023 148.245 59.5848 148.973 59.2789C149.71 58.9738 150.24 58.6601 150.562 58.3376L151.046 57.8398L152.758 59.8801C152.695 59.9504 152.596 60.0507 152.462 60.1811C152.337 60.3029 152.068 60.5115 151.654 60.8069C151.24 61.0929 150.806 61.344 150.351 61.56C149.897 61.7667 149.313 61.9477 148.598 62.1031C147.893 62.25 147.174 62.2913 146.441 62.2271C144.475 62.0552 142.841 61.1872 141.537 59.6233C140.244 58.0508 139.685 56.2537 139.862 54.2318C140.033 52.2851 140.87 50.681 142.373 49.4196C143.886 48.1495 145.612 47.5992 147.549 47.7687C149.496 47.939 151.057 48.7294 152.231 50.1399C153.416 51.5418 153.924 53.2161 153.754 55.1628L153.472 56.5881ZM147.333 50.2373C146.289 50.146 145.383 50.3794 144.614 50.9375C143.855 51.4871 143.311 52.2402 142.981 53.1969L151.007 53.8991C150.923 52.9062 150.556 52.0733 149.904 51.4003C149.253 50.718 148.396 50.3303 147.333 50.2373ZM156.56 60.9519C155.257 59.388 154.69 57.6374 154.859 55.7002C155.029 53.7535 155.892 52.1233 157.447 50.8095C159.012 49.4965 160.768 48.9252 162.715 49.0955C163.796 49.1901 164.782 49.5133 165.672 50.0649C166.562 50.6072 167.19 51.1264 167.554 51.6226L168.102 52.3387L166.062 54.0507C165.981 53.892 165.851 53.6958 165.673 53.4623C165.505 53.2201 165.112 52.8825 164.496 52.4496C163.89 52.0175 163.22 51.7694 162.486 51.7052C161.311 51.6023 160.251 51.9598 159.308 52.7775C158.374 53.596 157.85 54.6541 157.737 55.9519C157.624 57.2403 157.956 58.3686 158.734 59.3369C159.521 60.306 160.502 60.8419 161.678 60.9448C162.411 61.009 163.114 60.8856 163.786 60.5748C164.466 60.2648 164.963 59.9482 165.276 59.6249L165.76 59.1271L167.472 61.1674C167.409 61.2377 167.315 61.3385 167.19 61.4697C167.065 61.5914 166.801 61.8004 166.396 62.0967C165.992 62.3835 165.572 62.6358 165.136 62.8535C164.7 63.0618 164.144 63.2453 163.467 63.404C162.791 63.5533 162.118 63.5988 161.451 63.5403C159.504 63.37 157.874 62.5072 156.56 60.9519ZM168.514 52.5168L168.741 49.9213L181.155 51.0073L180.928 53.6029L176.16 53.1857L175.174 64.4567L172.296 64.2049L173.282 52.934L168.514 52.5168ZM182.595 51.1333L189.239 51.7146C190.565 51.8306 191.588 52.266 192.309 53.0208C193.03 53.7662 193.345 54.6608 193.254 55.7047C193.202 56.2971 193.023 56.8264 192.717 57.2923C192.421 57.7497 192.128 58.0606 191.839 58.2248L191.421 58.4582C191.475 58.482 191.553 58.5219 191.652 58.578C191.751 58.634 191.929 58.7727 192.184 58.9941C192.44 59.206 192.657 59.4382 192.834 59.6906C193.021 59.9344 193.177 60.2608 193.302 60.6697C193.437 61.0795 193.484 61.5148 193.444 61.9756C193.34 63.1699 192.827 64.1058 191.905 64.7833C190.993 65.4616 189.798 65.7361 188.322 65.607L181.382 64.9998L182.595 51.1333ZM188.865 59.4002L184.816 59.046L184.488 62.7983L188.537 63.1525C189.11 63.2027 189.581 63.0733 189.949 62.7644C190.318 62.4554 190.527 62.0141 190.577 61.4405C190.622 60.9233 190.487 60.466 190.171 60.0688C189.855 59.6716 189.42 59.4488 188.865 59.4002ZM189.862 56.7726C190.149 56.5323 190.311 56.1911 190.35 55.7491C190.389 55.2977 190.289 54.9336 190.048 54.6566C189.807 54.3703 189.466 54.2078 189.024 54.1691L185.272 53.8408L185.019 56.7326L188.771 57.0609C189.213 57.0995 189.577 57.0034 189.862 56.7726ZM206.224 67.1732L203.332 66.9202L203.458 65.4814C203.417 65.5157 203.346 65.5711 203.245 65.6475C203.152 65.7247 202.961 65.8501 202.671 66.0238C202.392 66.1888 202.09 66.3377 201.765 66.4704C201.442 66.5937 201.04 66.6959 200.559 66.7771C200.078 66.8582 199.598 66.8777 199.118 66.8358C197.707 66.7124 196.572 66.2009 195.713 65.3012C194.853 64.4016 194.47 63.4252 194.562 62.3719C194.661 61.234 195.102 60.3107 195.885 59.6021C196.676 58.8943 197.706 58.4917 198.975 58.3942L204.116 57.9627C204.18 57.2292 203.961 56.5894 203.459 56.0432C202.967 55.4979 202.298 55.1882 201.451 55.1142C200.718 55.05 200.036 55.1467 199.407 55.4044C198.789 55.6535 198.353 55.9234 198.1 56.214L197.676 56.6744L195.964 54.6341C196.027 54.5638 196.11 54.4763 196.214 54.3717C196.328 54.2585 196.567 54.0709 196.931 53.809C197.306 53.5385 197.696 53.3026 198.102 53.1012C198.508 52.8999 199.034 52.7374 199.68 52.6138C200.336 52.4817 201.002 52.4453 201.679 52.5045C203.372 52.6526 204.715 53.2771 205.709 54.3779C206.703 55.4694 207.136 56.7487 207.008 58.2157L206.224 67.1732ZM199.782 64.2785C200.958 64.3813 201.905 64.1136 202.624 63.4753C203.354 62.8284 203.775 61.856 203.889 60.5583L203.913 60.2761L199.365 60.6031C198.839 60.6519 198.402 60.8269 198.054 61.1281C197.705 61.4292 197.509 61.829 197.465 62.3274C197.425 62.7882 197.611 63.212 198.022 63.5986C198.443 63.986 199.03 64.2127 199.782 64.2785Z" fill="#14161F"/>
<path d="M228.797 58.6079L246.185 60.1291M246.185 60.1291L239.512 52.4273M246.185 60.1291L238.276 66.5551" stroke="#14161F" stroke-width="3"/>
<path d="M303.003 65.1645L311.664 56.0149L314.415 56.2556L312.645 76.484L309.471 76.2063L310.76 61.4793L302.574 70.0735L296.019 60.1897L294.73 74.9166L291.556 74.6389L293.326 54.4105L296.063 54.65L303.003 65.1645ZM329.613 71.9984L318.779 71.0506C318.844 72.0418 319.25 72.9301 319.996 73.7156C320.751 74.5019 321.689 74.944 322.808 75.0419C323.617 75.1127 324.385 74.9951 325.113 74.6893C325.85 74.3842 326.38 74.0704 326.702 73.748L327.186 73.2502L328.898 75.2905C328.835 75.3608 328.736 75.4611 328.602 75.5915C328.477 75.7133 328.208 75.9219 327.794 76.2173C327.38 76.5033 326.946 76.7543 326.491 76.9704C326.037 77.1771 325.453 77.3581 324.738 77.5135C324.033 77.6603 323.314 77.7017 322.581 77.6375C320.615 77.4655 318.981 76.5976 317.677 75.0337C316.384 73.4612 315.826 71.664 316.003 69.6421C316.173 67.6955 317.01 66.0914 318.513 64.8299C320.027 63.5599 321.752 63.0096 323.689 63.1791C325.636 63.3494 327.197 64.1398 328.372 65.5503C329.557 66.9522 330.064 68.6265 329.894 70.5732L329.613 71.9984ZM323.473 65.6477C322.43 65.5564 321.523 65.7898 320.754 66.3479C319.995 66.8975 319.451 67.6506 319.121 68.6072L327.147 69.3095C327.064 68.3166 326.696 67.4837 326.044 66.8107C325.393 66.1283 324.536 65.7407 323.473 65.6477ZM332.7 76.3623C331.397 74.7984 330.83 73.0478 330.999 71.1105C331.17 69.1639 332.032 67.5336 333.588 66.2199C335.152 64.9069 336.908 64.3356 338.855 64.5059C339.936 64.6005 340.922 64.9236 341.812 65.4753C342.703 66.0176 343.33 66.5368 343.694 67.033L344.243 67.749L342.202 69.461C342.121 69.3023 341.992 69.1062 341.813 68.8726C341.645 68.6305 341.253 68.2929 340.637 67.86C340.03 67.4279 339.36 67.1797 338.626 67.1155C337.451 67.0127 336.391 67.3701 335.448 68.1878C334.514 69.0064 333.99 70.0645 333.877 71.3623C333.764 72.6507 334.097 73.779 334.874 74.7473C335.661 75.7163 336.643 76.2523 337.818 76.3552C338.552 76.4193 339.254 76.296 339.926 75.9852C340.607 75.6752 341.103 75.3586 341.416 75.0353L341.9 74.5375L343.612 76.5778C343.549 76.6481 343.455 76.7488 343.33 76.88C343.206 77.0018 342.941 77.2108 342.536 77.5071C342.132 77.7939 341.712 78.0462 341.276 78.2639C340.841 78.4722 340.284 78.6557 339.607 78.8144C338.931 78.9637 338.259 79.0091 337.591 78.9507C335.644 78.7804 334.014 77.9176 332.7 76.3623ZM344.654 67.9272L344.882 65.3317L357.295 66.4177L357.068 69.0133L352.3 68.5961L351.314 79.867L348.436 79.6153L349.422 68.3444L344.654 67.9272ZM367.25 77.5798C368.184 76.7613 368.708 75.7078 368.82 74.4194C368.934 73.1217 368.602 71.9886 367.824 71.0204C367.047 70.0521 366.07 69.5166 364.895 69.4137C363.719 69.3109 362.66 69.6683 361.716 70.486C360.782 71.3045 360.259 72.3627 360.145 73.6605C360.032 74.9488 360.365 76.0771 361.142 77.0454C361.929 78.0145 362.911 78.5505 364.086 78.6533C365.262 78.7562 366.316 78.3983 367.25 77.5798ZM358.968 78.6604C357.665 77.0965 357.098 75.346 357.267 73.4087C357.438 71.462 358.301 69.8318 359.856 68.518C361.421 67.2051 363.176 66.6337 365.123 66.8041C367.07 66.9744 368.695 67.8415 369.998 69.4054C371.311 70.9701 371.883 72.7258 371.712 74.6724C371.543 76.6097 370.676 78.2348 369.111 79.5478C367.556 80.8522 365.806 81.4192 363.859 81.2489C361.912 81.0786 360.282 80.2157 358.968 78.6604ZM375.962 79.4081L376.964 79.4957C377.025 79.4442 377.113 79.3619 377.227 79.2487C377.352 79.1269 377.565 78.8565 377.867 78.4375C378.178 78.0194 378.455 77.5651 378.697 77.0745C378.949 76.5754 379.191 75.9143 379.425 75.0913C379.667 74.2692 379.829 73.3973 379.909 72.4757L380.263 68.4272L390.378 69.3121L389.392 80.583L391.409 80.7595L390.878 86.8251L388 86.5734L388.304 83.1032L378.627 82.2566L378.324 85.7268L375.432 85.4738L375.962 79.4081ZM382.928 71.2757L382.801 72.7287C382.72 73.6503 382.564 74.5179 382.332 75.3315C382.109 76.1459 381.856 76.8155 381.573 77.3404C381.301 77.8567 381.029 78.302 380.76 78.6764C380.5 79.0517 380.287 79.3173 380.121 79.4734L379.856 79.7487L386.5 80.33L387.259 71.6546L382.928 71.2757ZM396.614 69.8576L407.306 70.7931L406.093 84.6596L403.201 84.4066L404.187 73.1357L399.278 72.7062L399.151 74.1591C398.92 76.8017 398.526 78.8709 397.969 80.3668C397.422 81.8541 396.796 82.8275 396.093 83.2872C395.399 83.7476 394.534 83.9326 393.5 83.8421C393.246 83.8199 392.975 83.7725 392.688 83.7C392.41 83.6283 392.193 83.5572 392.038 83.4868L391.789 83.4082L392.03 80.6574C392.407 80.7852 392.737 80.8662 393.018 80.9002C393.611 80.9521 394.09 80.8329 394.457 80.5428C394.832 80.2535 395.181 79.5733 395.502 78.5021C395.834 77.4224 396.086 75.8904 396.26 73.9061L396.614 69.8576ZM414.826 71.451L421.174 72.0064L419.961 85.8728L417.083 85.6211L417.462 81.2905L414.429 81.0251L411.3 85.1151L408.126 84.8374L411.576 80.3348C411.502 80.3094 411.402 80.2581 411.276 80.1807C411.16 80.1042 410.956 79.9395 410.666 79.6867C410.376 79.4244 410.122 79.1321 409.904 78.8098C409.695 78.4883 409.51 78.0552 409.349 77.5104C409.199 76.9571 409.15 76.3748 409.204 75.7635C409.325 74.3811 409.899 73.2848 410.927 72.4745C411.965 71.6556 413.265 71.3144 414.826 71.451ZM418.082 74.2091L414.611 73.9055C413.953 73.8479 413.384 74.0208 412.903 74.4241C412.422 74.8274 412.153 75.3582 412.096 76.0165C412.038 76.6748 412.211 77.2443 412.614 77.725C413.017 78.2056 413.548 78.4748 414.207 78.5324L417.677 78.836L418.082 74.2091ZM438.209 75.373C439.522 76.9377 440.093 78.6934 439.923 80.6401C439.753 82.5774 438.886 84.2025 437.321 85.5154C435.767 86.8198 434.016 87.3868 432.07 87.2165C431.393 87.1573 430.738 87.0005 430.107 86.7463C429.485 86.4834 428.97 86.1967 428.562 85.8862C428.154 85.5662 427.788 85.2546 427.463 84.9515C427.14 84.6389 426.913 84.3679 426.781 84.1384L426.538 83.8329L428.578 82.1209C428.611 82.1806 428.661 82.2607 428.728 82.3614C428.804 82.4628 428.954 82.6512 429.176 82.9265C429.408 83.1932 429.652 83.4373 429.908 83.6586C430.173 83.8714 430.52 84.077 430.948 84.2756C431.386 84.4655 431.836 84.5807 432.297 84.621C432.955 84.6786 433.554 84.6077 434.092 84.4085C434.632 84.1998 435.058 83.9338 435.37 83.6106C435.692 83.2881 435.963 82.9565 436.182 82.6155C436.411 82.2755 436.569 81.9861 436.656 81.7473L436.802 81.3763L430.44 80.8197L430.655 78.3652L436.876 78.9095C436.864 78.8326 436.831 78.7207 436.777 78.5739C436.734 78.4185 436.62 78.148 436.436 77.7623C436.261 77.3774 436.05 77.0367 435.801 76.7401C435.562 76.435 435.199 76.1473 434.711 75.8772C434.233 75.5985 433.698 75.4332 433.105 75.3814C432.372 75.3172 431.675 75.4268 431.015 75.7102C430.366 75.9851 429.89 76.2751 429.589 76.5804L429.176 77.0703L427.45 75.0288C427.513 74.9585 427.602 74.8667 427.716 74.7535C427.84 74.6317 428.094 74.436 428.478 74.1663C428.863 73.8873 429.268 73.6432 429.694 73.434C430.119 73.2249 430.661 73.0496 431.317 72.908C431.984 72.7579 432.656 72.7125 433.334 72.7717C435.28 72.942 436.905 73.8091 438.209 75.373ZM454.821 74.9501L448.969 80.2659L454.031 88.8536L450.857 88.5759L446.928 81.9779L444.553 84.1013L444.213 87.9946L441.321 87.7416L442.534 73.8752L445.426 74.1282L444.883 80.3349L451.351 74.6465L454.821 74.9501ZM456.029 87.1521C454.725 85.5882 454.158 83.8376 454.328 81.9004C454.498 79.9537 455.361 78.3235 456.916 77.0097C458.481 75.6967 460.236 75.1254 462.183 75.2957C463.265 75.3903 464.25 75.7135 465.14 76.2651C466.031 76.8074 466.658 77.3266 467.022 77.8228L467.571 78.5389L465.531 80.2509C465.45 80.0922 465.32 79.896 465.141 79.6625C464.973 79.4203 464.581 79.0827 463.965 78.6498C463.358 78.2177 462.688 77.9696 461.955 77.9054C460.779 77.8025 459.72 78.16 458.776 78.9777C457.843 79.7962 457.319 80.8543 457.205 82.1521C457.093 83.4405 457.425 84.5688 458.203 85.5371C458.99 86.5062 459.971 87.0421 461.146 87.145C461.88 87.2092 462.582 87.0858 463.254 86.775C463.935 86.465 464.432 86.1484 464.744 85.8251L465.229 85.3273L466.941 87.3676C466.878 87.4379 466.783 87.5387 466.658 87.6699C466.534 87.7916 466.269 88.0006 465.864 88.2969C465.46 88.5837 465.04 88.836 464.604 89.0537C464.169 89.262 463.613 89.4455 462.935 89.6042C462.259 89.7535 461.587 89.799 460.919 89.7405C458.973 89.5702 457.342 88.7074 456.029 87.1521ZM472.313 79.0959L471.327 90.3668L468.436 90.1138L469.649 76.2474L482.217 77.347L481.004 91.2135L478.112 90.9605L479.099 79.6895L472.313 79.0959ZM497.266 86.6662L486.433 85.7184C486.498 86.7096 486.903 87.5979 487.649 88.3834C488.405 89.1697 489.342 89.6118 490.462 89.7097C491.27 89.7805 492.039 89.6629 492.767 89.357C493.504 89.052 494.034 88.7382 494.356 88.4158L494.84 87.918L496.552 89.9583C496.489 90.0286 496.39 90.1289 496.255 90.2593C496.131 90.3811 495.862 90.5897 495.447 90.8851C495.034 91.1711 494.6 91.4221 494.145 91.6382C493.691 91.8448 493.106 92.0259 492.392 92.1813C491.687 92.3281 490.968 92.3695 490.234 92.3053C488.269 92.1333 486.634 91.2654 485.331 89.7015C484.038 88.129 483.479 86.3318 483.656 84.3099C483.827 82.3633 484.663 80.7592 486.167 79.4977C487.68 78.2277 489.406 77.6774 491.343 77.8469C493.29 78.0172 494.85 78.8076 496.025 80.2181C497.21 81.62 497.718 83.2943 497.547 85.241L497.266 86.6662ZM491.127 80.3155C490.083 80.2241 489.177 80.4576 488.408 81.0157C487.649 81.5653 487.104 82.3184 486.774 83.275L494.801 83.9772C494.717 82.9844 494.349 82.1515 493.698 81.4785C493.047 80.7961 492.19 80.4084 491.127 80.3155ZM506.246 93.7061C505.729 93.6609 505.231 93.5557 504.753 93.3907C504.275 93.2257 503.869 93.0386 503.537 92.8295C503.205 92.6109 502.912 92.3957 502.655 92.1837C502.409 91.9632 502.23 91.7912 502.118 91.6676L501.939 91.4388L501.268 99.0985L498.377 98.8455L500.121 78.9133L503.012 79.1663L502.873 80.7603C503.016 80.6402 503.215 80.4822 503.469 80.2865C503.732 80.0916 504.269 79.8543 505.08 79.5747C505.891 79.295 506.701 79.1905 507.51 79.2613C509.344 79.4217 510.871 80.2661 512.093 81.7944C513.324 83.3141 513.853 85.0755 513.677 87.0786C513.502 89.0817 512.676 90.7293 511.198 92.0214C509.731 93.305 508.08 93.8666 506.246 93.7061ZM509.801 83.4559C509.034 82.4791 508.1 81.9425 506.999 81.8463C505.899 81.75 504.886 82.1163 503.961 82.945C503.036 83.7738 502.517 84.8276 502.405 86.1066C502.294 87.3762 502.622 88.4994 503.39 89.4762C504.157 90.4531 505.091 90.9896 506.191 91.0859C507.291 91.1822 508.304 90.8159 509.23 89.9872C510.155 89.1584 510.673 88.1092 510.784 86.8397C510.896 85.5607 510.568 84.4328 509.801 83.4559ZM514.622 82.7974L514.849 80.2019L527.262 81.2879L527.035 83.8834L522.267 83.4663L521.281 94.7372L518.403 94.4855L519.389 83.2145L514.622 82.7974ZM538.816 82.2988L541.412 82.5258L540.199 96.3923L537.307 96.1393L538.103 87.0408L530.085 95.5074L527.489 95.2803L528.702 81.4139L531.594 81.6669L530.798 90.7654L538.816 82.2988ZM553.228 87.1985C553.172 87.838 552.945 88.3819 552.546 88.8302C552.156 89.2794 551.771 89.5632 551.391 89.6816L550.817 89.9015C550.891 89.9269 550.987 89.9684 551.105 90.0261C551.232 90.0847 551.439 90.2164 551.724 90.4214C552.02 90.6179 552.274 90.8486 552.488 91.1137C552.712 91.3702 552.904 91.7187 553.065 92.1591C553.234 92.6004 553.296 93.0844 553.25 93.611C553.149 94.7677 552.545 95.7099 551.439 96.4376C550.344 97.1567 548.902 97.438 547.115 97.2817C546.438 97.2225 545.792 97.0807 545.177 96.8563C544.571 96.6327 544.071 96.3852 543.678 96.1139C543.285 95.8426 542.944 95.5759 542.654 95.3136C542.365 95.0419 542.153 94.8149 542.017 94.6324L541.843 94.3471L543.883 92.6352C543.984 92.7767 544.121 92.9544 544.291 93.1684C544.472 93.3831 544.863 93.6779 545.465 94.0528C546.077 94.4191 546.703 94.6302 547.343 94.6862C548.302 94.7701 549.037 94.6543 549.548 94.339C550.068 94.0244 550.352 93.5991 550.398 93.063C550.445 92.527 550.24 92.0589 549.782 91.6588C549.334 91.2594 548.63 91.0178 547.671 90.9339L546.077 90.7944L546.279 88.481L547.873 88.6205C548.626 88.6863 549.212 88.5907 549.632 88.3337C550.054 88.0674 550.285 87.7038 550.325 87.243C550.366 86.7728 550.202 86.3746 549.832 86.0485C549.464 85.713 548.903 85.5124 548.151 85.4466C547.596 85.398 547.041 85.4584 546.486 85.6278C545.941 85.7887 545.532 85.9708 545.259 86.1743L544.863 86.4667L543.137 84.4251C543.282 84.2862 543.491 84.115 543.765 83.9115C544.039 83.708 544.629 83.4564 545.537 83.1568C546.444 82.8571 547.392 82.7505 548.379 82.8369C549.978 82.9768 551.209 83.473 552.073 84.3256C552.936 85.1782 553.321 86.1358 553.228 87.1985ZM558.049 95.4807L561.081 95.746C561.74 95.8036 562.309 95.6307 562.79 95.2274C563.27 94.8241 563.54 94.2933 563.597 93.635C563.655 92.9767 563.482 92.4072 563.079 91.9266C562.675 91.4459 562.144 91.1768 561.486 91.1192L558.453 90.8538L558.049 95.4807ZM565.349 90.3484C566.23 91.3257 566.61 92.5103 566.488 93.9021C566.367 95.2845 565.788 96.3805 564.75 97.1899C563.722 98.0002 562.428 98.3371 560.867 98.2005L554.942 97.6822L556.155 83.8157L559.047 84.0687L558.668 88.3993L561.701 88.6647C563.262 88.8012 564.478 89.3625 565.349 90.3484ZM572.194 85.2189L570.981 99.0854L568.089 98.8324L569.302 84.9659L572.194 85.2189ZM589.829 86.7618L592.425 86.9889L591.212 100.855L588.32 100.602L589.116 91.5038L581.097 99.9705L578.502 99.7434L579.715 85.8769L582.607 86.1299L581.811 95.2285L589.829 86.7618ZM598.28 90.1165L598.507 87.521L610.92 88.607L610.693 91.2026L605.925 90.7854L604.939 102.056L602.061 101.805L603.048 90.5337L598.28 90.1165ZM612.36 88.733L619.004 89.3143C620.33 89.4303 621.353 89.8657 622.074 90.6205C622.795 91.3659 623.11 92.2605 623.019 93.3044C622.967 93.8968 622.788 94.4261 622.482 94.892C622.186 95.3494 621.894 95.6603 621.604 95.8245L621.186 96.0579C621.241 96.0817 621.318 96.1216 621.417 96.1777C621.517 96.2337 621.694 96.3724 621.949 96.5938C622.206 96.8057 622.422 97.0379 622.599 97.2903C622.786 97.5341 622.943 97.8605 623.068 98.2694C623.203 98.6792 623.25 99.1145 623.209 99.5753C623.105 100.77 622.592 101.706 621.67 102.383C620.758 103.061 619.564 103.336 618.087 103.207L611.147 102.599L612.36 88.733ZM618.63 96.9999L614.582 96.6457L614.254 100.398L618.302 100.752C618.876 100.802 619.347 100.673 619.715 100.364C620.083 100.055 620.292 99.6138 620.342 99.0402C620.388 98.523 620.252 98.0657 619.936 97.6685C619.621 97.2713 619.185 97.0485 618.63 96.9999ZM619.628 94.3723C619.914 94.132 620.077 93.7908 620.115 93.3488C620.155 92.8974 620.054 92.5333 619.813 92.2563C619.573 91.97 619.232 91.8075 618.79 91.7688L615.037 91.4405L614.784 94.3323L618.537 94.6606C618.979 94.6992 619.342 94.6031 619.628 94.3723ZM634.588 100.969C635.522 100.15 636.045 99.0968 636.158 97.8085C636.272 96.5107 635.939 95.3777 635.162 94.4094C634.384 93.4411 633.408 92.9056 632.232 92.8027C631.057 92.6999 629.997 93.0573 629.054 93.875C628.12 94.6935 627.596 95.7517 627.483 97.0495C627.37 98.3378 627.702 99.4662 628.48 100.434C629.267 101.404 630.248 101.939 631.424 102.042C632.599 102.145 633.654 101.787 634.588 100.969ZM626.306 102.049C625.002 100.486 624.435 98.735 624.605 96.7977C624.775 94.851 625.638 93.2208 627.193 91.907C628.758 90.5941 630.514 90.0227 632.46 90.1931C634.407 90.3634 636.032 91.2305 637.336 92.7944C638.649 94.3591 639.22 96.1148 639.05 98.0615C638.88 99.9987 638.013 101.624 636.448 102.937C634.894 104.241 633.143 104.808 631.197 104.638C629.25 104.468 627.62 103.605 626.306 102.049ZM647.801 106.091C647.284 106.045 646.786 105.94 646.308 105.775C645.829 105.61 645.424 105.423 645.092 105.214C644.76 104.995 644.466 104.78 644.21 104.568C643.964 104.348 643.785 104.176 643.672 104.052L643.493 103.823L642.823 111.483L639.931 111.23L641.675 91.2977L644.567 91.5507L644.428 93.1448C644.571 93.0246 644.769 92.8667 645.023 92.671C645.287 92.4761 645.824 92.2388 646.635 91.9591C647.446 91.6794 648.256 91.575 649.065 91.6457C650.899 91.8062 652.426 92.6505 653.647 94.1788C654.879 95.6985 655.407 97.4599 655.232 99.463C655.057 101.466 654.23 103.114 652.753 104.406C651.285 105.689 649.635 106.251 647.801 106.091ZM651.356 95.8404C650.588 94.8635 649.655 94.327 648.554 94.2307C647.454 94.1345 646.441 94.5007 645.516 95.3294C644.59 96.1582 644.072 97.2121 643.96 98.491C643.849 99.7606 644.177 100.884 644.944 101.861C645.712 102.838 646.646 103.374 647.746 103.47C648.846 103.567 649.859 103.2 650.784 102.372C651.71 101.543 652.228 100.494 652.339 99.2241C652.451 97.9451 652.123 96.8172 651.356 95.8404ZM665.304 107.338L665.76 102.132C664.741 102.726 663.555 102.963 662.201 102.844C660.527 102.698 659.235 102.078 658.327 100.985C657.428 99.8826 657.054 98.4664 657.206 96.736L657.56 92.6875L660.438 92.9393L660.084 96.9878C660.008 97.8529 660.222 98.6013 660.726 99.2329C661.24 99.856 661.901 100.203 662.71 100.274C663.302 100.325 663.87 100.28 664.413 100.138C664.967 99.9877 665.37 99.824 665.622 99.6471L665.999 99.3958L666.518 93.4712L669.395 93.7229L668.182 107.589L665.304 107.338ZM684.444 103.042L673.611 102.094C673.675 103.086 674.081 103.974 674.827 104.759C675.583 105.546 676.52 105.988 677.639 106.086C678.448 106.156 679.216 106.039 679.944 105.733C680.682 105.428 681.212 105.114 681.534 104.792L682.018 104.294L683.73 106.334C683.667 106.405 683.568 106.505 683.433 106.635C683.309 106.757 683.04 106.966 682.625 107.261C682.212 107.547 681.777 107.798 681.323 108.014C680.869 108.221 680.284 108.402 679.569 108.557C678.865 108.704 678.146 108.745 677.412 108.681C675.447 108.509 673.812 107.641 672.509 106.077C671.215 104.505 670.657 102.708 670.834 100.686C671.004 98.7392 671.841 97.1351 673.345 95.8737C674.858 94.6036 676.584 94.0533 678.521 94.2228C680.467 94.3931 682.028 95.1835 683.203 96.594C684.388 97.9959 684.896 99.6702 684.725 101.617L684.444 103.042ZM678.305 96.6914C677.261 96.6001 676.355 96.8335 675.586 97.3916C674.827 97.9412 674.282 98.6943 673.952 99.651L681.979 100.353C681.895 99.3603 681.527 98.5274 680.875 97.8544C680.224 97.1721 679.368 96.7844 678.305 96.6914ZM687.532 107.406C686.228 105.842 685.661 104.092 685.831 102.154C686.001 100.208 686.864 98.5774 688.419 97.2636C689.984 95.9506 691.74 95.3793 693.686 95.5496C694.768 95.6442 695.753 95.9674 696.643 96.519C697.534 97.0613 698.161 97.5805 698.525 98.0767L699.074 98.7928L697.034 100.505C696.953 100.346 696.823 100.15 696.645 99.9164C696.476 99.6742 696.084 99.3366 695.468 98.9037C694.861 98.4716 694.191 98.2235 693.458 98.1593C692.282 98.0564 691.223 98.4139 690.28 99.2316C689.346 100.05 688.822 101.108 688.708 102.406C688.596 103.694 688.928 104.823 689.706 105.791C690.493 106.76 691.474 107.296 692.65 107.399C693.383 107.463 694.086 107.34 694.757 107.029C695.438 106.719 695.935 106.402 696.248 106.079L696.732 105.581L698.444 107.622C698.381 107.692 698.287 107.793 698.161 107.924C698.037 108.046 697.772 108.255 697.367 108.551C696.963 108.838 696.543 109.09 696.107 109.308C695.672 109.516 695.116 109.699 694.439 109.858C693.762 110.007 693.09 110.053 692.422 109.994C690.476 109.824 688.846 108.961 687.532 107.406ZM699.486 98.9709L699.713 96.3754L712.127 97.4614L711.899 100.057L707.132 99.6398L706.145 110.911L703.268 110.659L704.254 99.3881L699.486 98.9709ZM713.567 97.5874L720.211 98.1687C721.537 98.2847 722.56 98.7201 723.28 99.4749C724.002 100.22 724.317 101.115 724.225 102.159C724.173 102.751 723.994 103.28 723.688 103.746C723.392 104.204 723.1 104.515 722.811 104.679L722.392 104.912C722.447 104.936 722.524 104.976 722.624 105.032C722.723 105.088 722.9 105.227 723.156 105.448C723.412 105.66 723.629 105.892 723.805 106.145C723.993 106.388 724.149 106.715 724.274 107.124C724.409 107.534 724.456 107.969 724.416 108.43C724.311 109.624 723.798 110.56 722.877 111.237C721.964 111.916 720.77 112.19 719.294 112.061L712.353 111.454L713.567 97.5874ZM719.837 105.854L715.788 105.5L715.46 109.252L719.508 109.607C720.082 109.657 720.553 109.527 720.921 109.218C721.289 108.91 721.498 108.468 721.549 107.895C721.594 107.377 721.459 106.92 721.143 106.523C720.827 106.126 720.392 105.903 719.837 105.854ZM720.834 103.227C721.12 102.986 721.283 102.645 721.322 102.203C721.361 101.752 721.26 101.388 721.019 101.111C720.779 100.824 720.438 100.662 719.996 100.623L716.244 100.295L715.991 103.187L719.743 103.515C720.185 103.554 720.549 103.458 720.834 103.227ZM737.196 113.627L734.304 113.374L734.43 111.935C734.389 111.97 734.318 112.025 734.216 112.102C734.124 112.179 733.933 112.304 733.643 112.478C733.363 112.643 733.061 112.792 732.737 112.925C732.413 113.048 732.011 113.15 731.53 113.231C731.049 113.312 730.569 113.332 730.09 113.29C728.679 113.166 727.544 112.655 726.685 111.755C725.825 110.856 725.441 109.879 725.534 108.826C725.633 107.688 726.074 106.765 726.856 106.056C727.648 105.348 728.678 104.946 729.947 104.848L735.088 104.417C735.152 103.683 734.933 103.043 734.431 102.497C733.939 101.952 733.269 101.642 732.423 101.568C731.689 101.504 731.008 101.601 730.379 101.859C729.76 102.108 729.324 102.377 729.072 102.668L728.647 103.128L726.935 101.088C726.998 101.018 727.082 100.93 727.186 100.826C727.3 100.713 727.539 100.525 727.903 100.263C728.277 99.9926 728.668 99.7567 729.074 99.5553C729.48 99.354 730.006 99.1915 730.652 99.0679C731.308 98.9358 731.974 98.8994 732.651 98.9586C734.344 99.1067 735.687 99.7312 736.68 100.832C737.675 101.924 738.108 103.203 737.979 104.67L737.196 113.627ZM730.754 110.733C731.929 110.835 732.877 110.568 733.596 109.929C734.325 109.282 734.747 108.31 734.86 107.012L734.885 106.73L730.336 107.057C729.811 107.106 729.374 107.281 729.025 107.582C728.677 107.883 728.481 108.283 728.437 108.782C728.397 109.242 728.582 109.666 728.994 110.053C729.415 110.44 730.002 110.667 730.754 110.733Z" fill="#14161F"/>
<path d="M759.769 105.062L777.157 106.583M777.157 106.583L770.483 98.8814M777.157 106.583L769.247 113.009" stroke="#14161F" stroke-width="3"/>
<path d="M833.975 111.618L842.636 102.469L845.387 102.709L843.617 122.938L840.443 122.66L841.732 107.933L833.546 116.527L826.99 106.644L825.702 121.37L822.528 121.093L824.298 100.864L827.035 101.104L833.975 111.618ZM860.584 118.452L849.751 117.504C849.816 118.496 850.221 119.384 850.967 120.169C851.723 120.956 852.66 121.398 853.78 121.496C854.588 121.567 855.357 121.449 856.085 121.143C856.822 120.838 857.352 120.524 857.674 120.202L858.158 119.704L859.87 121.744C859.807 121.815 859.708 121.915 859.574 122.045C859.449 122.167 859.18 122.376 858.765 122.671C858.352 122.957 857.918 123.208 857.463 123.424C857.009 123.631 856.425 123.812 855.71 123.967C855.005 124.114 854.286 124.156 853.552 124.091C851.587 123.919 849.953 123.051 848.649 121.488C847.356 119.915 846.797 118.118 846.974 116.096C847.145 114.149 847.981 112.545 849.485 111.284C850.998 110.014 852.724 109.463 854.661 109.633C856.608 109.803 858.168 110.594 859.343 112.004C860.528 113.406 861.036 115.08 860.865 117.027L860.584 118.452ZM854.445 112.102C853.401 112.01 852.495 112.244 851.726 112.802C850.967 113.351 850.423 114.104 850.092 115.061L858.119 115.763C858.035 114.77 857.667 113.938 857.016 113.265C856.365 112.582 855.508 112.195 854.445 112.102ZM863.672 122.816C862.368 121.252 861.801 119.502 861.971 117.564C862.141 115.618 863.004 113.987 864.559 112.674C866.124 111.361 867.88 110.789 869.826 110.96C870.908 111.054 871.894 111.378 872.783 111.929C873.674 112.471 874.302 112.991 874.666 113.487L875.214 114.203L873.174 115.915C873.093 115.756 872.963 115.56 872.785 115.326C872.616 115.084 872.224 114.747 871.608 114.314C871.002 113.882 870.332 113.634 869.598 113.569C868.423 113.467 867.363 113.824 866.42 114.642C865.486 115.46 864.962 116.518 864.849 117.816C864.736 119.105 865.068 120.233 865.846 121.201C866.633 122.17 867.614 122.706 868.79 122.809C869.523 122.873 870.226 122.75 870.897 122.439C871.578 122.129 872.075 121.812 872.388 121.489L872.872 120.991L874.584 123.032C874.521 123.102 874.427 123.203 874.302 123.334C874.177 123.456 873.913 123.665 873.508 123.961C873.103 124.248 872.683 124.5 872.247 124.718C871.812 124.926 871.256 125.11 870.579 125.268C869.902 125.418 869.23 125.463 868.563 125.405C866.616 125.234 864.986 124.371 863.672 122.816ZM875.626 114.381L875.853 111.786L888.267 112.872L888.04 115.467L883.272 115.05L882.286 126.321L879.408 126.069L880.394 114.798L875.626 114.381ZM898.222 124.034C899.156 123.215 899.679 122.162 899.792 120.873C899.906 119.576 899.574 118.443 898.796 117.474C898.018 116.506 897.042 115.97 895.866 115.868C894.691 115.765 893.631 116.122 892.688 116.94C891.754 117.758 891.23 118.817 891.117 120.114C891.004 121.403 891.336 122.531 892.114 123.499C892.901 124.468 893.882 125.004 895.058 125.107C896.233 125.21 897.288 124.852 898.222 124.034ZM889.94 125.114C888.637 123.55 888.07 121.8 888.239 119.863C888.409 117.916 889.272 116.286 890.828 114.972C892.392 113.659 894.148 113.088 896.095 113.258C898.041 113.428 899.666 114.295 900.97 115.859C902.283 117.424 902.854 119.18 902.684 121.126C902.514 123.064 901.647 124.689 900.083 126.002C898.528 127.306 896.777 127.873 894.831 127.703C892.884 127.532 891.254 126.67 889.94 125.114ZM906.934 125.862L907.936 125.95C907.997 125.898 908.085 125.816 908.199 125.703C908.323 125.581 908.536 125.31 908.838 124.891C909.15 124.473 909.426 124.019 909.668 123.528C909.921 123.029 910.163 122.368 910.396 121.545C910.639 120.723 910.8 119.851 910.881 118.93L911.235 114.881L921.349 115.766L920.363 127.037L922.38 127.213L921.85 133.279L918.972 133.027L919.276 129.557L909.599 128.71L909.295 132.181L906.403 131.928L906.934 125.862ZM913.9 117.73L913.773 119.183C913.692 120.104 913.536 120.972 913.303 121.785C913.081 122.6 912.828 123.269 912.545 123.794C912.272 124.311 912.001 124.756 911.731 125.13C911.471 125.506 911.258 125.771 911.093 125.927L910.827 126.203L917.472 126.784L918.231 118.108L913.9 117.73ZM927.585 116.312L938.278 117.247L937.065 131.113L934.173 130.86L935.159 119.59L930.25 119.16L930.123 120.613C929.892 123.256 929.498 125.325 928.94 126.821C928.393 128.308 927.768 129.281 927.064 129.741C926.37 130.201 925.506 130.386 924.471 130.296C924.218 130.274 923.947 130.226 923.659 130.154C923.381 130.082 923.165 130.011 923.01 129.941L922.761 129.862L923.002 127.111C923.379 127.239 923.708 127.32 923.99 127.354C924.582 127.406 925.062 127.287 925.428 126.997C925.804 126.707 926.153 126.027 926.474 124.956C926.805 123.876 927.058 122.344 927.231 120.36L927.585 116.312ZM945.798 117.905L952.146 118.46L950.932 132.327L948.055 132.075L948.434 127.744L945.401 127.479L942.271 131.569L939.097 131.291L942.547 126.789C942.474 126.763 942.374 126.712 942.248 126.635C942.132 126.558 941.928 126.393 941.637 126.141C941.348 125.878 941.094 125.586 940.876 125.264C940.667 124.942 940.482 124.509 940.321 123.964C940.171 123.411 940.122 122.829 940.175 122.217C940.296 120.835 940.871 119.739 941.899 118.928C942.937 118.109 944.237 117.768 945.798 117.905ZM949.053 120.663L945.583 120.359C944.925 120.302 944.355 120.475 943.875 120.878C943.394 121.281 943.125 121.812 943.067 122.47C943.01 123.129 943.183 123.698 943.586 124.179C943.989 124.66 944.52 124.929 945.178 124.986L948.648 125.29L949.053 120.663ZM969.181 121.827C970.493 123.392 971.065 125.147 970.894 127.094C970.725 129.031 969.858 130.656 968.293 131.969C966.739 133.274 964.988 133.841 963.041 133.67C962.364 133.611 961.71 133.454 961.078 133.2C960.457 132.937 959.942 132.651 959.533 132.34C959.125 132.02 958.759 131.708 958.435 131.405C958.112 131.093 957.884 130.822 957.753 130.592L957.51 130.287L959.55 128.575C959.583 128.634 959.632 128.715 959.699 128.815C959.776 128.917 959.925 129.105 960.147 129.38C960.38 129.647 960.624 129.891 960.879 130.112C961.145 130.325 961.492 130.531 961.92 130.729C962.358 130.919 962.808 131.035 963.269 131.075C963.927 131.132 964.525 131.062 965.064 130.862C965.603 130.654 966.029 130.388 966.342 130.064C966.664 129.742 966.935 129.41 967.154 129.069C967.383 128.729 967.541 128.44 967.628 128.201L967.774 127.83L961.412 127.274L961.627 124.819L967.848 125.363C967.835 125.286 967.803 125.175 967.749 125.028C967.706 124.872 967.592 124.602 967.408 124.216C967.233 123.831 967.021 123.491 966.772 123.194C966.534 122.889 966.17 122.601 965.682 122.331C965.204 122.052 964.669 121.887 964.077 121.835C963.343 121.771 962.647 121.881 961.987 122.164C961.338 122.439 960.862 122.729 960.561 123.034L960.148 123.524L958.422 121.483C958.485 121.412 958.574 121.321 958.688 121.207C958.812 121.086 959.066 120.89 959.45 120.62C959.834 120.341 960.239 120.097 960.665 119.888C961.091 119.679 961.632 119.503 962.289 119.362C962.956 119.212 963.628 119.166 964.305 119.226C966.252 119.396 967.877 120.263 969.181 121.827ZM985.792 121.404L979.94 126.72L985.002 135.307L981.829 135.03L977.9 128.432L975.525 130.555L975.185 134.448L972.293 134.195L973.506 120.329L976.398 120.582L975.855 126.789L982.322 121.1L985.792 121.404ZM987 133.606C985.697 132.042 985.13 130.291 985.299 128.354C985.47 126.408 986.332 124.777 987.888 123.464C989.452 122.151 991.208 121.579 993.155 121.75C994.236 121.844 995.222 122.167 996.112 122.719C997.003 123.261 997.63 123.78 997.994 124.277L998.543 124.993L996.502 126.705C996.421 126.546 996.292 126.35 996.113 126.116C995.945 125.874 995.553 125.537 994.937 125.104C994.33 124.672 993.66 124.423 992.926 124.359C991.751 124.256 990.692 124.614 989.748 125.432C988.814 126.25 988.29 127.308 988.177 128.606C988.064 129.894 988.397 131.023 989.174 131.991C989.961 132.96 990.943 133.496 992.118 133.599C992.852 133.663 993.554 133.54 994.226 133.229C994.907 132.919 995.403 132.602 995.716 132.279L996.2 131.781L997.912 133.821C997.849 133.892 997.755 133.993 997.63 134.124C997.506 134.245 997.241 134.455 996.836 134.751C996.432 135.038 996.012 135.29 995.576 135.508C995.141 135.716 994.584 135.899 993.907 136.058C993.231 136.207 992.559 136.253 991.891 136.194C989.944 136.024 988.314 135.161 987 133.606ZM1003.29 125.55L1002.3 136.821L999.407 136.568L1000.62 122.701L1013.19 123.801L1011.98 137.667L1009.08 137.414L1010.07 126.143L1003.29 125.55ZM1028.24 133.12L1017.4 132.172C1017.47 133.163 1017.87 134.052 1018.62 134.837C1019.38 135.624 1020.31 136.066 1021.43 136.164C1022.24 136.234 1023.01 136.117 1023.74 135.811C1024.48 135.506 1025.01 135.192 1025.33 134.87L1025.81 134.372L1027.52 136.412C1027.46 136.482 1027.36 136.583 1027.23 136.713C1027.1 136.835 1026.83 137.044 1026.42 137.339C1026.01 137.625 1025.57 137.876 1025.12 138.092C1024.66 138.299 1024.08 138.48 1023.36 138.635C1022.66 138.782 1021.94 138.823 1021.21 138.759C1019.24 138.587 1017.61 137.719 1016.3 136.155C1015.01 134.583 1014.45 132.786 1014.63 130.764C1014.8 128.817 1015.64 127.213 1017.14 125.952C1018.65 124.682 1020.38 124.131 1022.31 124.301C1024.26 124.471 1025.82 125.261 1027 126.672C1028.18 128.074 1028.69 129.748 1028.52 131.695L1028.24 133.12ZM1022.1 126.769C1021.05 126.678 1020.15 126.911 1019.38 127.47C1018.62 128.019 1018.08 128.772 1017.75 129.729L1025.77 130.431C1025.69 129.438 1025.32 128.605 1024.67 127.932C1024.02 127.25 1023.16 126.862 1022.1 126.769ZM1037.22 140.16C1036.7 140.115 1036.2 140.01 1035.72 139.845C1035.25 139.68 1034.84 139.492 1034.51 139.283C1034.18 139.065 1033.88 138.85 1033.63 138.638C1033.38 138.417 1033.2 138.245 1033.09 138.121L1032.91 137.893L1032.24 145.552L1029.35 145.299L1031.09 125.367L1033.98 125.62L1033.84 127.214C1033.99 127.094 1034.19 126.936 1034.44 126.74C1034.7 126.545 1035.24 126.308 1036.05 126.029C1036.86 125.749 1037.67 125.644 1038.48 125.715C1040.32 125.876 1041.84 126.72 1043.06 128.248C1044.3 129.768 1044.82 131.529 1044.65 133.532C1044.47 135.536 1043.65 137.183 1042.17 138.475C1040.7 139.759 1039.05 140.32 1037.22 140.16ZM1040.77 129.91C1040.01 128.933 1039.07 128.396 1037.97 128.3C1036.87 128.204 1035.86 128.57 1034.93 129.399C1034.01 130.228 1033.49 131.281 1033.38 132.56C1033.27 133.83 1033.59 134.953 1034.36 135.93C1035.13 136.907 1036.06 137.443 1037.16 137.54C1038.26 137.636 1039.28 137.27 1040.2 136.441C1041.13 135.612 1041.64 134.563 1041.76 133.294C1041.87 132.015 1041.54 130.887 1040.77 129.91ZM1045.59 129.251L1045.82 126.656L1058.23 127.742L1058.01 130.337L1053.24 129.92L1052.25 141.191L1049.38 140.939L1050.36 129.668L1045.59 129.251ZM1069.79 128.753L1072.38 128.98L1071.17 142.846L1068.28 142.593L1069.07 133.495L1061.06 141.961L1058.46 141.734L1059.67 127.868L1062.57 128.121L1061.77 137.219L1069.79 128.753ZM1084.2 133.652C1084.14 134.292 1083.92 134.836 1083.52 135.284C1083.13 135.733 1082.74 136.017 1082.36 136.135L1081.79 136.355C1081.86 136.381 1081.96 136.422 1082.08 136.48C1082.2 136.539 1082.41 136.67 1082.7 136.875C1082.99 137.072 1083.25 137.302 1083.46 137.568C1083.68 137.824 1083.88 138.173 1084.04 138.613C1084.21 139.054 1084.27 139.538 1084.22 140.065C1084.12 141.222 1083.52 142.164 1082.41 142.891C1081.32 143.611 1079.87 143.892 1078.09 143.736C1077.41 143.676 1076.76 143.535 1076.15 143.31C1075.54 143.087 1075.04 142.839 1074.65 142.568C1074.26 142.296 1073.92 142.03 1073.63 141.767C1073.34 141.496 1073.12 141.269 1072.99 141.086L1072.81 140.801L1074.85 139.089C1074.96 139.231 1075.09 139.408 1075.26 139.622C1075.44 139.837 1075.83 140.132 1076.44 140.507C1077.05 140.873 1077.67 141.084 1078.31 141.14C1079.27 141.224 1080.01 141.108 1080.52 140.793C1081.04 140.478 1081.32 140.053 1081.37 139.517C1081.42 138.981 1081.21 138.513 1080.75 138.113C1080.31 137.713 1079.6 137.472 1078.64 137.388L1077.05 137.248L1077.25 134.935L1078.84 135.074C1079.6 135.14 1080.18 135.045 1080.6 134.788C1081.03 134.521 1081.26 134.158 1081.3 133.697C1081.34 133.227 1081.17 132.828 1080.8 132.502C1080.44 132.167 1079.87 131.966 1079.12 131.9C1078.57 131.852 1078.01 131.912 1077.46 132.082C1076.91 132.243 1076.5 132.425 1076.23 132.628L1075.84 132.921L1074.11 130.879C1074.25 130.74 1074.46 130.569 1074.74 130.365C1075.01 130.162 1075.6 129.91 1076.51 129.611C1077.42 129.311 1078.36 129.204 1079.35 129.291C1080.95 129.431 1082.18 129.927 1083.04 130.779C1083.91 131.632 1084.29 132.59 1084.2 133.652ZM1089.02 141.935L1092.05 142.2C1092.71 142.257 1093.28 142.085 1093.76 141.681C1094.24 141.278 1094.51 140.747 1094.57 140.089C1094.63 139.431 1094.45 138.861 1094.05 138.38C1093.65 137.9 1093.12 137.631 1092.46 137.573L1089.43 137.308L1089.02 141.935ZM1096.32 136.802C1097.2 137.78 1097.58 138.964 1097.46 140.356C1097.34 141.738 1096.76 142.834 1095.72 143.644C1094.69 144.454 1093.4 144.791 1091.84 144.654L1085.91 144.136L1087.13 130.27L1090.02 130.523L1089.64 134.853L1092.67 135.119C1094.23 135.255 1095.45 135.816 1096.32 136.802ZM1103.17 131.673L1101.95 145.539L1099.06 145.286L1100.27 131.42L1103.17 131.673ZM1120.8 133.216L1123.4 133.443L1122.18 147.309L1119.29 147.056L1120.09 137.958L1112.07 146.424L1109.47 146.197L1110.69 132.331L1113.58 132.584L1112.78 141.682L1120.8 133.216ZM1129.25 136.57L1129.48 133.975L1141.89 135.061L1141.66 137.656L1136.9 137.239L1135.91 148.51L1133.03 148.258L1134.02 136.988L1129.25 136.57ZM1143.33 135.187L1149.98 135.768C1151.3 135.884 1152.33 136.32 1153.05 137.074C1153.77 137.82 1154.08 138.714 1153.99 139.758C1153.94 140.351 1153.76 140.88 1153.45 141.346C1153.16 141.803 1152.87 142.114 1152.58 142.278L1152.16 142.512C1152.21 142.536 1152.29 142.575 1152.39 142.632C1152.49 142.688 1152.67 142.826 1152.92 143.048C1153.18 143.26 1153.39 143.492 1153.57 143.744C1153.76 143.988 1153.91 144.314 1154.04 144.723C1154.17 145.133 1154.22 145.568 1154.18 146.029C1154.08 147.224 1153.56 148.159 1152.64 148.837C1151.73 149.515 1150.54 149.79 1149.06 149.661L1142.12 149.053L1143.33 135.187ZM1149.6 143.454L1145.55 143.1L1145.23 146.852L1149.27 147.206C1149.85 147.256 1150.32 147.127 1150.69 146.818C1151.05 146.509 1151.26 146.068 1151.31 145.494C1151.36 144.977 1151.22 144.52 1150.91 144.122C1150.59 143.725 1150.16 143.502 1149.6 143.454ZM1150.6 140.826C1150.89 140.586 1151.05 140.245 1151.09 139.803C1151.13 139.351 1151.03 138.987 1150.78 138.71C1150.54 138.424 1150.2 138.261 1149.76 138.223L1146.01 137.894L1145.76 140.786L1149.51 141.114C1149.95 141.153 1150.31 141.057 1150.6 140.826ZM1165.56 147.423C1166.49 146.604 1167.02 145.551 1167.13 144.262C1167.24 142.965 1166.91 141.832 1166.13 140.863C1165.36 139.895 1164.38 139.359 1163.2 139.257C1162.03 139.154 1160.97 139.511 1160.03 140.329C1159.09 141.147 1158.57 142.206 1158.45 143.503C1158.34 144.792 1158.67 145.92 1159.45 146.888C1160.24 147.857 1161.22 148.393 1162.4 148.496C1163.57 148.599 1164.63 148.241 1165.56 147.423ZM1157.28 148.503C1155.97 146.939 1155.41 145.189 1155.58 143.252C1155.75 141.305 1156.61 139.675 1158.17 138.361C1159.73 137.048 1161.49 136.477 1163.43 136.647C1165.38 136.817 1167 137.684 1168.31 139.248C1169.62 140.813 1170.19 142.569 1170.02 144.515C1169.85 146.453 1168.98 148.078 1167.42 149.391C1165.87 150.695 1164.12 151.262 1162.17 151.092C1160.22 150.921 1158.59 150.059 1157.28 148.503ZM1178.77 152.544C1178.26 152.499 1177.76 152.394 1177.28 152.229C1176.8 152.064 1176.4 151.877 1176.06 151.668C1175.73 151.449 1175.44 151.234 1175.18 151.022C1174.94 150.802 1174.76 150.629 1174.64 150.506L1174.47 150.277L1173.79 157.937L1170.9 157.684L1172.65 137.752L1175.54 138.005L1175.4 139.599C1175.54 139.478 1175.74 139.321 1176 139.125C1176.26 138.93 1176.8 138.693 1177.61 138.413C1178.42 138.133 1179.23 138.029 1180.04 138.1C1181.87 138.26 1183.4 139.104 1184.62 140.633C1185.85 142.152 1186.38 143.914 1186.2 145.917C1186.03 147.92 1185.2 149.568 1183.72 150.86C1182.26 152.143 1180.61 152.705 1178.77 152.544ZM1182.33 142.294C1181.56 141.317 1180.63 140.781 1179.53 140.685C1178.43 140.588 1177.41 140.955 1176.49 141.783C1175.56 142.612 1175.04 143.666 1174.93 144.945C1174.82 146.214 1175.15 147.338 1175.92 148.315C1176.68 149.291 1177.62 149.828 1178.72 149.924C1179.82 150.02 1180.83 149.654 1181.76 148.825C1182.68 147.997 1183.2 146.948 1183.31 145.678C1183.42 144.399 1183.09 143.271 1182.33 142.294ZM1196.28 153.791L1196.73 148.586C1195.71 149.179 1194.53 149.417 1193.17 149.298C1191.5 149.152 1190.21 148.532 1189.3 147.438C1188.4 146.336 1188.03 144.92 1188.18 143.19L1188.53 139.141L1191.41 139.393L1191.06 143.442C1190.98 144.307 1191.19 145.055 1191.7 145.687C1192.21 146.31 1192.87 146.657 1193.68 146.727C1194.27 146.779 1194.84 146.734 1195.39 146.592C1195.94 146.442 1196.34 146.278 1196.59 146.101L1196.97 145.85L1197.49 139.925L1200.37 140.177L1199.15 154.043L1196.28 153.791ZM1215.42 149.496L1204.58 148.548C1204.65 149.539 1205.05 150.428 1205.8 151.213C1206.55 152 1207.49 152.442 1208.61 152.54C1209.42 152.61 1210.19 152.493 1210.92 152.187C1211.65 151.882 1212.18 151.568 1212.51 151.246L1212.99 150.748L1214.7 152.788C1214.64 152.858 1214.54 152.959 1214.4 153.089C1214.28 153.211 1214.01 153.419 1213.6 153.715C1213.18 154.001 1212.75 154.252 1212.29 154.468C1211.84 154.675 1211.26 154.856 1210.54 155.011C1209.84 155.158 1209.12 155.199 1208.38 155.135C1206.42 154.963 1204.78 154.095 1203.48 152.531C1202.19 150.959 1201.63 149.162 1201.81 147.14C1201.98 145.193 1202.81 143.589 1204.32 142.328C1205.83 141.057 1207.56 140.507 1209.49 140.677C1211.44 140.847 1213 141.637 1214.17 143.048C1215.36 144.45 1215.87 146.124 1215.7 148.071L1215.42 149.496ZM1209.28 143.145C1208.23 143.054 1207.33 143.287 1206.56 143.846C1205.8 144.395 1205.25 145.148 1204.92 146.105L1212.95 146.807C1212.87 145.814 1212.5 144.981 1211.85 144.308C1211.2 143.626 1210.34 143.238 1209.28 143.145ZM1218.5 153.86C1217.2 152.296 1216.63 150.545 1216.8 148.608C1216.97 146.661 1217.84 145.031 1219.39 143.717C1220.96 142.404 1222.71 141.833 1224.66 142.003C1225.74 142.098 1226.73 142.421 1227.61 142.973C1228.51 143.515 1229.13 144.034 1229.5 144.531L1230.05 145.247L1228.01 146.959C1227.92 146.8 1227.79 146.604 1227.62 146.37C1227.45 146.128 1227.06 145.791 1226.44 145.358C1225.83 144.925 1225.16 144.677 1224.43 144.613C1223.25 144.51 1222.19 144.868 1221.25 145.685C1220.32 146.504 1219.79 147.562 1219.68 148.86C1219.57 150.148 1219.9 151.277 1220.68 152.245C1221.46 153.214 1222.45 153.75 1223.62 153.853C1224.35 153.917 1225.06 153.794 1225.73 153.483C1226.41 153.173 1226.91 152.856 1227.22 152.533L1227.7 152.035L1229.42 154.075C1229.35 154.146 1229.26 154.246 1229.13 154.378C1229.01 154.499 1228.74 154.708 1228.34 155.005C1227.93 155.291 1227.51 155.544 1227.08 155.761C1226.64 155.97 1226.09 156.153 1225.41 156.312C1224.73 156.461 1224.06 156.507 1223.39 156.448C1221.45 156.278 1219.82 155.415 1218.5 153.86ZM1230.46 145.425L1230.68 142.829L1243.1 143.915L1242.87 146.511L1238.1 146.094L1237.12 157.365L1234.24 157.113L1235.23 145.842L1230.46 145.425ZM1244.54 144.041L1251.18 144.623C1252.51 144.739 1253.53 145.174 1254.25 145.929C1254.97 146.674 1255.29 147.569 1255.2 148.613C1255.15 149.205 1254.97 149.734 1254.66 150.2C1254.36 150.658 1254.07 150.969 1253.78 151.133L1253.36 151.366C1253.42 151.39 1253.5 151.43 1253.6 151.486C1253.69 151.542 1253.87 151.681 1254.13 151.902C1254.38 152.114 1254.6 152.346 1254.78 152.599C1254.96 152.842 1255.12 153.169 1255.25 153.578C1255.38 153.987 1255.43 154.423 1255.39 154.884C1255.28 156.078 1254.77 157.014 1253.85 157.691C1252.94 158.37 1251.74 158.644 1250.27 158.515L1243.33 157.908L1244.54 144.041ZM1250.81 152.308L1246.76 151.954L1246.43 155.706L1250.48 156.06C1251.05 156.111 1251.52 155.981 1251.89 155.672C1252.26 155.363 1252.47 154.922 1252.52 154.348C1252.57 153.831 1252.43 153.374 1252.11 152.977C1251.8 152.58 1251.36 152.357 1250.81 152.308ZM1251.81 149.681C1252.09 149.44 1252.25 149.099 1252.29 148.657C1252.33 148.206 1252.23 147.842 1251.99 147.565C1251.75 147.278 1251.41 147.116 1250.97 147.077L1247.22 146.749L1246.96 149.641L1250.71 149.969C1251.16 150.007 1251.52 149.911 1251.81 149.681ZM1268.17 160.081L1265.28 159.828L1265.4 158.389C1265.36 158.424 1265.29 158.479 1265.19 158.555C1265.1 158.633 1264.9 158.758 1264.61 158.932C1264.34 159.097 1264.03 159.246 1263.71 159.378C1263.39 159.502 1262.98 159.604 1262.5 159.685C1262.02 159.766 1261.54 159.786 1261.06 159.744C1259.65 159.62 1258.52 159.109 1257.66 158.209C1256.8 157.31 1256.41 156.333 1256.51 155.28C1256.6 154.142 1257.05 153.219 1257.83 152.51C1258.62 151.802 1259.65 151.4 1260.92 151.302L1266.06 150.871C1266.12 150.137 1265.9 149.497 1265.4 148.951C1264.91 148.406 1264.24 148.096 1263.39 148.022C1262.66 147.958 1261.98 148.055 1261.35 148.312C1260.73 148.561 1260.3 148.831 1260.04 149.122L1259.62 149.582L1257.91 147.542C1257.97 147.472 1258.05 147.384 1258.16 147.28C1258.27 147.166 1258.51 146.979 1258.87 146.717C1259.25 146.446 1259.64 146.211 1260.05 146.009C1260.45 145.808 1260.98 145.645 1261.62 145.522C1262.28 145.39 1262.95 145.353 1263.62 145.412C1265.32 145.561 1266.66 146.185 1267.65 147.286C1268.65 148.377 1269.08 149.657 1268.95 151.124L1268.17 160.081ZM1261.73 157.186C1262.9 157.289 1263.85 157.022 1264.57 156.383C1265.3 155.736 1265.72 154.764 1265.83 153.466L1265.86 153.184L1261.31 153.511C1260.78 153.56 1260.35 153.735 1260 154.036C1259.65 154.337 1259.45 154.737 1259.41 155.235C1259.37 155.696 1259.55 156.12 1259.97 156.507C1260.39 156.894 1260.97 157.121 1261.73 157.186Z" fill="#14161F"/>
<path d="M1290.74 151.516L1308.13 153.037M1308.13 153.037L1301.45 145.335M1308.13 153.037L1300.22 159.463" stroke="#14161F" stroke-width="3"/>
<path d="M1364.95 158.072L1373.61 148.923L1376.36 149.164L1374.59 169.392L1371.41 169.114L1372.7 154.387L1364.52 162.981L1357.96 153.098L1356.67 167.825L1353.5 167.547L1355.27 147.318L1358.01 147.558L1364.95 158.072ZM1391.56 164.906L1380.72 163.959C1380.79 164.95 1381.19 165.838 1381.94 166.624C1382.69 167.41 1383.63 167.852 1384.75 167.95C1385.56 168.021 1386.33 167.903 1387.06 167.597C1387.79 167.292 1388.32 166.978 1388.65 166.656L1389.13 166.158L1390.84 168.198C1390.78 168.269 1390.68 168.369 1390.55 168.499C1390.42 168.621 1390.15 168.83 1389.74 169.125C1389.32 169.411 1388.89 169.662 1388.43 169.878C1387.98 170.085 1387.4 170.266 1386.68 170.421C1385.98 170.568 1385.26 170.61 1384.52 170.545C1382.56 170.373 1380.92 169.506 1379.62 167.942C1378.33 166.369 1377.77 164.572 1377.95 162.55C1378.12 160.603 1378.95 158.999 1380.46 157.738C1381.97 156.468 1383.7 155.918 1385.63 156.087C1387.58 156.257 1389.14 157.048 1390.32 158.458C1391.5 159.86 1392.01 161.534 1391.84 163.481L1391.56 164.906ZM1385.42 158.556C1384.37 158.464 1383.47 158.698 1382.7 159.256C1381.94 159.805 1381.39 160.559 1381.06 161.515L1389.09 162.217C1389.01 161.225 1388.64 160.392 1387.99 159.719C1387.34 159.036 1386.48 158.649 1385.42 158.556ZM1394.64 169.27C1393.34 167.706 1392.77 165.956 1392.94 164.018C1393.11 162.072 1393.98 160.442 1395.53 159.128C1397.1 157.815 1398.85 157.244 1400.8 157.414C1401.88 157.508 1402.87 157.832 1403.76 158.383C1404.65 158.926 1405.27 159.445 1405.64 159.941L1406.19 160.657L1404.15 162.369C1404.06 162.21 1403.94 162.014 1403.76 161.781C1403.59 161.538 1403.2 161.201 1402.58 160.768C1401.97 160.336 1401.3 160.088 1400.57 160.024C1399.39 159.921 1398.33 160.278 1397.39 161.096C1396.46 161.914 1395.93 162.972 1395.82 164.27C1395.71 165.559 1396.04 166.687 1396.82 167.655C1397.6 168.624 1398.59 169.16 1399.76 169.263C1400.5 169.327 1401.2 169.204 1401.87 168.893C1402.55 168.583 1403.05 168.267 1403.36 167.943L1403.84 167.445L1405.56 169.486C1405.49 169.556 1405.4 169.657 1405.27 169.788C1405.15 169.91 1404.88 170.119 1404.48 170.415C1404.08 170.702 1403.66 170.954 1403.22 171.172C1402.78 171.38 1402.23 171.564 1401.55 171.722C1400.87 171.872 1400.2 171.917 1399.53 171.859C1397.59 171.688 1395.96 170.826 1394.64 169.27ZM1406.6 160.835L1406.83 158.24L1419.24 159.326L1419.01 161.921L1414.24 161.504L1413.26 172.775L1410.38 172.523L1411.37 161.252L1406.6 160.835ZM1429.19 170.488C1430.13 169.669 1430.65 168.616 1430.76 167.327C1430.88 166.03 1430.55 164.897 1429.77 163.928C1428.99 162.96 1428.01 162.425 1426.84 162.322C1425.66 162.219 1424.6 162.576 1423.66 163.394C1422.73 164.212 1422.2 165.271 1422.09 166.568C1421.98 167.857 1422.31 168.985 1423.09 169.953C1423.87 170.922 1424.85 171.458 1426.03 171.561C1427.21 171.664 1428.26 171.306 1429.19 170.488ZM1420.91 171.568C1419.61 170.004 1419.04 168.254 1419.21 166.317C1419.38 164.37 1420.24 162.74 1421.8 161.426C1423.36 160.113 1425.12 159.542 1427.07 159.712C1429.01 159.882 1430.64 160.749 1431.94 162.313C1433.25 163.878 1433.83 165.634 1433.66 167.58C1433.49 169.518 1432.62 171.143 1431.05 172.456C1429.5 173.76 1427.75 174.327 1425.8 174.157C1423.86 173.987 1422.23 173.124 1420.91 171.568ZM1437.91 172.316L1438.91 172.404C1438.97 172.352 1439.06 172.27 1439.17 172.157C1439.3 172.035 1439.51 171.764 1439.81 171.345C1440.12 170.927 1440.4 170.473 1440.64 169.982C1440.89 169.483 1441.13 168.822 1441.37 167.999C1441.61 167.177 1441.77 166.305 1441.85 165.384L1442.21 161.335L1452.32 162.22L1451.34 173.491L1453.35 173.667L1452.82 179.733L1449.94 179.481L1450.25 176.011L1440.57 175.165L1440.27 178.635L1437.38 178.382L1437.91 172.316ZM1444.87 164.184L1444.74 165.637C1444.66 166.558 1444.51 167.426 1444.28 168.239C1444.05 169.054 1443.8 169.723 1443.52 170.248C1443.24 170.765 1442.97 171.21 1442.7 171.584C1442.44 171.96 1442.23 172.225 1442.06 172.381L1441.8 172.657L1448.44 173.238L1449.2 164.563L1444.87 164.184ZM1458.56 162.766L1469.25 163.701L1468.04 177.568L1465.14 177.315L1466.13 166.044L1461.22 165.614L1461.09 167.067C1460.86 169.71 1460.47 171.779 1459.91 173.275C1459.37 174.762 1458.74 175.735 1458.04 176.195C1457.34 176.656 1456.48 176.841 1455.44 176.75C1455.19 176.728 1454.92 176.68 1454.63 176.608C1454.35 176.536 1454.14 176.465 1453.98 176.395L1453.73 176.316L1453.97 173.565C1454.35 173.693 1454.68 173.774 1454.96 173.808C1455.55 173.86 1456.03 173.741 1456.4 173.451C1456.78 173.161 1457.12 172.481 1457.45 171.41C1457.78 170.33 1458.03 168.798 1458.2 166.814L1458.56 162.766ZM1476.77 164.359L1483.12 164.914L1481.9 178.781L1479.03 178.529L1479.41 174.198L1476.37 173.933L1473.24 178.023L1470.07 177.745L1473.52 173.243C1473.45 173.217 1473.35 173.166 1473.22 173.089C1473.1 173.012 1472.9 172.847 1472.61 172.595C1472.32 172.332 1472.07 172.04 1471.85 171.718C1471.64 171.396 1471.45 170.963 1471.29 170.418C1471.14 169.865 1471.09 169.283 1471.15 168.671C1471.27 167.289 1471.84 166.193 1472.87 165.382C1473.91 164.564 1475.21 164.222 1476.77 164.359ZM1480.03 167.117L1476.55 166.813C1475.9 166.756 1475.33 166.929 1474.85 167.332C1474.37 167.735 1474.1 168.266 1474.04 168.924C1473.98 169.583 1474.15 170.152 1474.56 170.633C1474.96 171.114 1475.49 171.383 1476.15 171.44L1479.62 171.744L1480.03 167.117ZM1500.15 168.281C1501.47 169.846 1502.04 171.601 1501.87 173.548C1501.7 175.485 1500.83 177.11 1499.26 178.423C1497.71 179.728 1495.96 180.295 1494.01 180.124C1493.34 180.065 1492.68 179.908 1492.05 179.654C1491.43 179.391 1490.91 179.105 1490.5 178.794C1490.1 178.474 1489.73 178.163 1489.41 177.859C1489.08 177.547 1488.86 177.276 1488.72 177.046L1488.48 176.741L1490.52 175.029C1490.55 175.089 1490.6 175.169 1490.67 175.269C1490.75 175.371 1490.9 175.559 1491.12 175.834C1491.35 176.101 1491.6 176.345 1491.85 176.567C1492.12 176.779 1492.46 176.985 1492.89 177.184C1493.33 177.373 1493.78 177.489 1494.24 177.529C1494.9 177.587 1495.5 177.516 1496.04 177.316C1496.58 177.108 1497 176.842 1497.31 176.519C1497.64 176.196 1497.91 175.864 1498.13 175.524C1498.35 175.183 1498.51 174.894 1498.6 174.655L1498.75 174.284L1492.38 173.728L1492.6 171.273L1498.82 171.817C1498.81 171.741 1498.77 171.629 1498.72 171.482C1498.68 171.326 1498.56 171.056 1498.38 170.67C1498.2 170.285 1497.99 169.945 1497.74 169.648C1497.51 169.343 1497.14 169.055 1496.65 168.785C1496.18 168.506 1495.64 168.341 1495.05 168.289C1494.32 168.225 1493.62 168.335 1492.96 168.618C1492.31 168.893 1491.83 169.183 1491.53 169.488L1491.12 169.978L1489.39 167.937C1489.46 167.866 1489.55 167.775 1489.66 167.661C1489.78 167.54 1490.04 167.344 1490.42 167.074C1490.81 166.795 1491.21 166.551 1491.64 166.342C1492.06 166.133 1492.6 165.958 1493.26 165.816C1493.93 165.666 1494.6 165.62 1495.28 165.68C1497.22 165.85 1498.85 166.717 1500.15 168.281ZM1516.76 167.858L1510.91 173.174L1515.97 181.762L1512.8 181.484L1508.87 174.886L1506.5 177.009L1506.16 180.903L1503.26 180.65L1504.48 166.783L1507.37 167.036L1506.83 173.243L1513.29 167.554L1516.76 167.858ZM1517.97 180.06C1516.67 178.496 1516.1 176.746 1516.27 174.808C1516.44 172.862 1517.3 171.231 1518.86 169.918C1520.42 168.605 1522.18 168.033 1524.13 168.204C1525.21 168.298 1526.19 168.621 1527.08 169.173C1527.97 169.715 1528.6 170.235 1528.97 170.731L1529.51 171.447L1527.47 173.159C1527.39 173 1527.26 172.804 1527.08 172.57C1526.92 172.328 1526.52 171.991 1525.91 171.558C1525.3 171.126 1524.63 170.878 1523.9 170.813C1522.72 170.71 1521.66 171.068 1520.72 171.886C1519.79 172.704 1519.26 173.762 1519.15 175.06C1519.04 176.348 1519.37 177.477 1520.15 178.445C1520.93 179.414 1521.91 179.95 1523.09 180.053C1523.82 180.117 1524.53 179.994 1525.2 179.683C1525.88 179.373 1526.38 179.056 1526.69 178.733L1527.17 178.235L1528.88 180.276C1528.82 180.346 1528.73 180.447 1528.6 180.578C1528.48 180.7 1528.21 180.909 1527.81 181.205C1527.4 181.492 1526.98 181.744 1526.55 181.962C1526.11 182.17 1525.56 182.353 1524.88 182.512C1524.2 182.661 1523.53 182.707 1522.86 182.648C1520.92 182.478 1519.29 181.615 1517.97 180.06ZM1534.26 172.004L1533.27 183.275L1530.38 183.022L1531.59 169.155L1544.16 170.255L1542.95 184.121L1540.06 183.868L1541.04 172.598L1534.26 172.004ZM1559.21 179.574L1548.38 178.626C1548.44 179.618 1548.85 180.506 1549.59 181.291C1550.35 182.078 1551.29 182.52 1552.4 182.618C1553.21 182.688 1553.98 182.571 1554.71 182.265C1555.45 181.96 1555.98 181.646 1556.3 181.324L1556.78 180.826L1558.5 182.866C1558.43 182.937 1558.33 183.037 1558.2 183.167C1558.07 183.289 1557.81 183.498 1557.39 183.793C1556.98 184.079 1556.54 184.33 1556.09 184.546C1555.63 184.753 1555.05 184.934 1554.34 185.089C1553.63 185.236 1552.91 185.277 1552.18 185.213C1550.21 185.041 1548.58 184.173 1547.27 182.609C1545.98 181.037 1545.42 179.24 1545.6 177.218C1545.77 175.271 1546.61 173.667 1548.11 172.406C1549.62 171.136 1551.35 170.585 1553.29 170.755C1555.23 170.925 1556.79 171.716 1557.97 173.126C1559.15 174.528 1559.66 176.202 1559.49 178.149L1559.21 179.574ZM1553.07 173.223C1552.03 173.132 1551.12 173.366 1550.35 173.924C1549.59 174.473 1549.05 175.226 1548.72 176.183L1556.74 176.885C1556.66 175.892 1556.29 175.059 1555.64 174.386C1554.99 173.704 1554.13 173.316 1553.07 173.223ZM1568.19 186.614C1567.67 186.569 1567.17 186.464 1566.7 186.299C1566.22 186.134 1565.81 185.947 1565.48 185.737C1565.15 185.519 1564.85 185.304 1564.6 185.092C1564.35 184.871 1564.17 184.699 1564.06 184.576L1563.88 184.347L1563.21 192.006L1560.32 191.753L1562.06 171.821L1564.96 172.074L1564.82 173.668C1564.96 173.548 1565.16 173.39 1565.41 173.194C1565.68 173 1566.21 172.762 1567.02 172.483C1567.83 172.203 1568.64 172.099 1569.45 172.169C1571.29 172.33 1572.81 173.174 1574.04 174.702C1575.27 176.222 1575.8 177.983 1575.62 179.987C1575.45 181.99 1574.62 183.637 1573.14 184.929C1571.67 186.213 1570.02 186.775 1568.19 186.614ZM1571.74 176.364C1570.98 175.387 1570.04 174.851 1568.94 174.754C1567.84 174.658 1566.83 175.024 1565.9 175.853C1564.98 176.682 1564.46 177.736 1564.35 179.015C1564.24 180.284 1564.57 181.407 1565.33 182.384C1566.1 183.361 1567.03 183.898 1568.13 183.994C1569.23 184.09 1570.25 183.724 1571.17 182.895C1572.1 182.066 1572.62 181.017 1572.73 179.748C1572.84 178.469 1572.51 177.341 1571.74 176.364ZM1576.57 175.705L1576.79 173.11L1589.21 174.196L1588.98 176.791L1584.21 176.374L1583.22 187.645L1580.35 187.393L1581.33 176.123L1576.57 175.705ZM1600.76 175.207L1603.36 175.434L1602.14 189.3L1599.25 189.047L1600.05 179.949L1592.03 188.415L1589.43 188.188L1590.65 174.322L1593.54 174.575L1592.74 183.673L1600.76 175.207ZM1615.17 180.106C1615.12 180.746 1614.89 181.29 1614.49 181.738C1614.1 182.187 1613.71 182.471 1613.33 182.59L1612.76 182.809C1612.83 182.835 1612.93 182.876 1613.05 182.934C1613.18 182.993 1613.38 183.124 1613.67 183.329C1613.96 183.526 1614.22 183.757 1614.43 184.022C1614.66 184.278 1614.85 184.627 1615.01 185.067C1615.18 185.508 1615.24 185.992 1615.19 186.519C1615.09 187.676 1614.49 188.618 1613.38 189.346C1612.29 190.065 1610.85 190.346 1609.06 190.19C1608.38 190.13 1607.74 189.989 1607.12 189.764C1606.51 189.541 1606.01 189.293 1605.62 189.022C1605.23 188.751 1604.89 188.484 1604.6 188.222C1604.31 187.95 1604.1 187.723 1603.96 187.54L1603.79 187.255L1605.83 185.543C1605.93 185.685 1606.06 185.862 1606.23 186.076C1606.41 186.291 1606.81 186.586 1607.41 186.961C1608.02 187.327 1608.65 187.538 1609.29 187.594C1610.25 187.678 1610.98 187.562 1611.49 187.247C1612.01 186.932 1612.3 186.507 1612.34 185.971C1612.39 185.435 1612.18 184.967 1611.73 184.567C1611.28 184.167 1610.57 183.926 1609.61 183.842L1608.02 183.702L1608.22 181.389L1609.82 181.528C1610.57 181.594 1611.16 181.499 1611.58 181.242C1612 180.975 1612.23 180.612 1612.27 180.151C1612.31 179.681 1612.15 179.283 1611.78 178.956C1611.41 178.621 1610.85 178.42 1610.09 178.355C1609.54 178.306 1608.98 178.366 1608.43 178.536C1607.88 178.697 1607.48 178.879 1607.2 179.082L1606.81 179.375L1605.08 177.333C1605.23 177.194 1605.43 177.023 1605.71 176.819C1605.98 176.616 1606.57 176.364 1607.48 176.065C1608.39 175.765 1609.34 175.658 1610.32 175.745C1611.92 175.885 1613.15 176.381 1614.02 177.234C1614.88 178.086 1615.26 179.044 1615.17 180.106ZM1619.99 188.389L1623.02 188.654C1623.68 188.712 1624.25 188.539 1624.73 188.135C1625.21 187.732 1625.48 187.201 1625.54 186.543C1625.6 185.885 1625.43 185.315 1625.02 184.835C1624.62 184.354 1624.09 184.085 1623.43 184.027L1620.4 183.762L1619.99 188.389ZM1627.29 183.256C1628.17 184.234 1628.55 185.418 1628.43 186.81C1628.31 188.192 1627.73 189.288 1626.69 190.098C1625.67 190.908 1624.37 191.245 1622.81 191.108L1616.89 190.59L1618.1 176.724L1620.99 176.977L1620.61 181.307L1623.64 181.573C1625.21 181.709 1626.42 182.27 1627.29 183.256ZM1634.14 178.127L1632.92 191.993L1630.03 191.74L1631.25 177.874L1634.14 178.127ZM1651.77 179.67L1654.37 179.897L1653.15 193.763L1650.26 193.51L1651.06 184.412L1643.04 192.878L1640.45 192.651L1641.66 178.785L1644.55 179.038L1643.75 188.136L1651.77 179.67ZM1660.22 183.025L1660.45 180.429L1672.86 181.515L1672.64 184.111L1667.87 183.693L1666.88 194.964L1664 194.713L1664.99 183.442L1660.22 183.025ZM1674.3 181.641L1680.95 182.222C1682.27 182.338 1683.3 182.774 1684.02 183.528C1684.74 184.274 1685.05 185.168 1684.96 186.212C1684.91 186.805 1684.73 187.334 1684.43 187.8C1684.13 188.257 1683.84 188.568 1683.55 188.732L1683.13 188.966C1683.18 188.99 1683.26 189.03 1683.36 189.086C1683.46 189.142 1683.64 189.28 1683.89 189.502C1684.15 189.714 1684.37 189.946 1684.54 190.198C1684.73 190.442 1684.89 190.768 1685.01 191.177C1685.15 191.587 1685.19 192.022 1685.15 192.483C1685.05 193.678 1684.54 194.613 1683.61 195.291C1682.7 195.969 1681.51 196.244 1680.03 196.115L1673.09 195.507L1674.3 181.641ZM1680.57 189.908L1676.53 189.554L1676.2 193.306L1680.25 193.66C1680.82 193.71 1681.29 193.581 1681.66 193.272C1682.03 192.963 1682.24 192.522 1682.29 191.948C1682.33 191.431 1682.2 190.974 1681.88 190.576C1681.56 190.179 1681.13 189.956 1680.57 189.908ZM1681.57 187.28C1681.86 187.04 1682.02 186.699 1682.06 186.257C1682.1 185.805 1682 185.441 1681.76 185.164C1681.52 184.878 1681.18 184.715 1680.73 184.677L1676.98 184.348L1676.73 187.24L1680.48 187.569C1680.92 187.607 1681.29 187.511 1681.57 187.28ZM1696.53 193.877C1697.47 193.058 1697.99 192.005 1698.1 190.716C1698.22 189.419 1697.88 188.286 1697.11 187.317C1696.33 186.349 1695.35 185.814 1694.18 185.711C1693 185.608 1691.94 185.965 1691 186.783C1690.06 187.601 1689.54 188.66 1689.43 189.957C1689.31 191.246 1689.65 192.374 1690.42 193.342C1691.21 194.311 1692.19 194.847 1693.37 194.95C1694.54 195.053 1695.6 194.695 1696.53 193.877ZM1688.25 194.957C1686.95 193.393 1686.38 191.643 1686.55 189.706C1686.72 187.759 1687.58 186.129 1689.14 184.815C1690.7 183.502 1692.46 182.931 1694.4 183.101C1696.35 183.271 1697.98 184.138 1699.28 185.702C1700.59 187.267 1701.16 189.023 1700.99 190.969C1700.82 192.907 1699.96 194.532 1698.39 195.845C1696.84 197.149 1695.09 197.716 1693.14 197.546C1691.19 197.376 1689.56 196.513 1688.25 194.957ZM1709.74 198.999C1709.23 198.953 1708.73 198.848 1708.25 198.683C1707.77 198.518 1707.37 198.331 1707.04 198.122C1706.7 197.903 1706.41 197.688 1706.15 197.476C1705.91 197.256 1705.73 197.084 1705.62 196.96L1705.44 196.731L1704.77 204.391L1701.87 204.138L1703.62 184.206L1706.51 184.459L1706.37 186.053C1706.51 185.933 1706.71 185.775 1706.97 185.579C1707.23 185.384 1707.77 185.147 1708.58 184.867C1709.39 184.587 1710.2 184.483 1711.01 184.554C1712.84 184.714 1714.37 185.558 1715.59 187.087C1716.82 188.606 1717.35 190.368 1717.18 192.371C1717 194.374 1716.17 196.022 1714.7 197.314C1713.23 198.597 1711.58 199.159 1709.74 198.999ZM1713.3 188.748C1712.53 187.771 1711.6 187.235 1710.5 187.139C1709.4 187.042 1708.38 187.409 1707.46 188.237C1706.53 189.066 1706.02 190.12 1705.9 191.399C1705.79 192.669 1706.12 193.792 1706.89 194.769C1707.66 195.745 1708.59 196.282 1709.69 196.378C1710.79 196.475 1711.8 196.108 1712.73 195.28C1713.65 194.451 1714.17 193.402 1714.28 192.132C1714.39 190.853 1714.07 189.725 1713.3 188.748ZM1727.25 200.246L1727.7 195.04C1726.68 195.634 1725.5 195.871 1724.14 195.752C1722.47 195.606 1721.18 194.986 1720.27 193.893C1719.37 192.791 1719 191.374 1719.15 189.644L1719.5 185.595L1722.38 185.847L1722.03 189.896C1721.95 190.761 1722.17 191.509 1722.67 192.141C1723.18 192.764 1723.84 193.111 1724.65 193.182C1725.25 193.233 1725.81 193.188 1726.36 193.046C1726.91 192.896 1727.31 192.732 1727.57 192.555L1727.94 192.304L1728.46 186.379L1731.34 186.631L1730.13 200.497L1727.25 200.246ZM1746.39 195.95L1735.55 195.002C1735.62 195.993 1736.02 196.882 1736.77 197.667C1737.53 198.454 1738.46 198.896 1739.58 198.994C1740.39 199.064 1741.16 198.947 1741.89 198.641C1742.63 198.336 1743.16 198.022 1743.48 197.7L1743.96 197.202L1745.67 199.242C1745.61 199.312 1745.51 199.413 1745.38 199.543C1745.25 199.665 1744.98 199.874 1744.57 200.169C1744.16 200.455 1743.72 200.706 1743.27 200.922C1742.81 201.129 1742.23 201.31 1741.51 201.465C1740.81 201.612 1740.09 201.653 1739.36 201.589C1737.39 201.417 1735.76 200.549 1734.45 198.985C1733.16 197.413 1732.6 195.616 1732.78 193.594C1732.95 191.647 1733.78 190.043 1735.29 188.782C1736.8 187.512 1738.53 186.961 1740.46 187.131C1742.41 187.301 1743.97 188.091 1745.15 189.502C1746.33 190.904 1746.84 192.578 1746.67 194.525L1746.39 195.95ZM1740.25 189.599C1739.2 189.508 1738.3 189.741 1737.53 190.3C1736.77 190.849 1736.23 191.602 1735.9 192.559L1743.92 193.261C1743.84 192.268 1743.47 191.435 1742.82 190.762C1742.17 190.08 1741.31 189.692 1740.25 189.599ZM1749.48 200.314C1748.17 198.75 1747.6 196.999 1747.77 195.062C1747.94 193.116 1748.81 191.485 1750.36 190.172C1751.93 188.859 1753.68 188.287 1755.63 188.458C1756.71 188.552 1757.7 188.875 1758.59 189.427C1759.48 189.969 1760.1 190.488 1760.47 190.985L1761.02 191.701L1758.98 193.413C1758.9 193.254 1758.77 193.058 1758.59 192.824C1758.42 192.582 1758.03 192.245 1757.41 191.812C1756.8 191.38 1756.13 191.131 1755.4 191.067C1754.23 190.964 1753.17 191.322 1752.22 192.14C1751.29 192.958 1750.77 194.016 1750.65 195.314C1750.54 196.602 1750.87 197.731 1751.65 198.699C1752.44 199.668 1753.42 200.204 1754.59 200.307C1755.33 200.371 1756.03 200.248 1756.7 199.937C1757.38 199.627 1757.88 199.31 1758.19 198.987L1758.68 198.489L1760.39 200.529C1760.32 200.6 1760.23 200.701 1760.1 200.832C1759.98 200.953 1759.72 201.163 1759.31 201.459C1758.91 201.746 1758.49 201.998 1758.05 202.216C1757.62 202.424 1757.06 202.607 1756.38 202.766C1755.71 202.915 1755.03 202.961 1754.37 202.902C1752.42 202.732 1750.79 201.869 1749.48 200.314ZM1761.43 191.879L1761.66 189.283L1774.07 190.369L1773.84 192.965L1769.08 192.548L1768.09 203.819L1765.21 203.567L1766.2 192.296L1761.43 191.879ZM1775.51 190.495L1782.15 191.077C1783.48 191.193 1784.5 191.628 1785.22 192.383C1785.95 193.128 1786.26 194.023 1786.17 195.067C1786.12 195.659 1785.94 196.188 1785.63 196.654C1785.34 197.112 1785.04 197.423 1784.75 197.587L1784.34 197.82C1784.39 197.844 1784.47 197.884 1784.57 197.94C1784.67 197.996 1784.84 198.135 1785.1 198.356C1785.36 198.568 1785.57 198.8 1785.75 199.053C1785.94 199.296 1786.09 199.623 1786.22 200.032C1786.35 200.442 1786.4 200.877 1786.36 201.338C1786.25 202.532 1785.74 203.468 1784.82 204.145C1783.91 204.824 1782.71 205.098 1781.24 204.969L1774.3 204.362L1775.51 190.495ZM1781.78 198.762L1777.73 198.408L1777.4 202.16L1781.45 202.515C1782.03 202.565 1782.5 202.435 1782.86 202.126C1783.23 201.817 1783.44 201.376 1783.49 200.803C1783.54 200.285 1783.4 199.828 1783.09 199.431C1782.77 199.034 1782.33 198.811 1781.78 198.762ZM1782.78 196.135C1783.06 195.894 1783.23 195.553 1783.27 195.111C1783.3 194.66 1783.2 194.296 1782.96 194.019C1782.72 193.732 1782.38 193.57 1781.94 193.531L1778.19 193.203L1777.93 196.095L1781.69 196.423C1782.13 196.462 1782.49 196.365 1782.78 196.135ZM1799.14 206.535L1796.25 206.282L1796.37 204.843C1796.33 204.878 1796.26 204.933 1796.16 205.01C1796.07 205.087 1795.88 205.212 1795.59 205.386C1795.31 205.551 1795 205.7 1794.68 205.832C1794.36 205.956 1793.95 206.058 1793.47 206.139C1792.99 206.22 1792.51 206.24 1792.03 206.198C1790.62 206.074 1789.49 205.563 1788.63 204.663C1787.77 203.764 1787.38 202.787 1787.48 201.734C1787.58 200.596 1788.02 199.673 1788.8 198.964C1789.59 198.256 1790.62 197.854 1791.89 197.756L1797.03 197.325C1797.1 196.591 1796.88 195.951 1796.37 195.405C1795.88 194.86 1795.21 194.55 1794.37 194.476C1793.63 194.412 1792.95 194.509 1792.32 194.766C1791.7 195.016 1791.27 195.285 1791.02 195.576L1790.59 196.036L1788.88 193.996C1788.94 193.926 1789.03 193.838 1789.13 193.734C1789.24 193.621 1789.48 193.433 1789.85 193.171C1790.22 192.901 1790.61 192.665 1791.02 192.463C1791.42 192.262 1791.95 192.099 1792.6 191.976C1793.25 191.844 1793.92 191.807 1794.59 191.867C1796.29 192.015 1797.63 192.639 1798.62 193.74C1799.62 194.831 1800.05 196.111 1799.92 197.578L1799.14 206.535ZM1792.7 203.641C1793.87 203.743 1794.82 203.476 1795.54 202.837C1796.27 202.19 1796.69 201.218 1796.8 199.92L1796.83 199.638L1792.28 199.965C1791.75 200.014 1791.32 200.189 1790.97 200.49C1790.62 200.791 1790.42 201.191 1790.38 201.69C1790.34 202.15 1790.53 202.574 1790.94 202.961C1791.36 203.348 1791.95 203.575 1792.7 203.641Z" fill="#14161F"/>
</svg>
