<svg width="103" height="24" viewBox="0 0 103 24" fill="none" xmlns="http://www.w3.org/2000/svg">
<g clip-path="url(#clip0_248_127)">
<path d="M50.1672 7.59693C49.1001 8.7877 48.5666 10.2823 48.5666 12.0808C48.5476 12.912 48.6798 13.7388 48.9551 14.511C49.2304 15.2831 49.6431 15.9844 50.168 16.5723C50.6929 17.1601 51.3191 17.6221 52.0085 17.9303C52.6979 18.2384 53.436 18.3862 54.178 18.3646C55.1525 18.3739 56.1164 18.1372 56.9981 17.6723C57.8826 17.2015 58.5212 16.7262 58.9139 16.2462L59.501 15.5539L62.5807 19.3246C62.5066 19.4469 62.3995 19.6085 62.2594 19.8069C61.9529 20.1846 61.6232 20.5378 61.2726 20.8638C60.1246 22.0223 58.738 22.8437 57.2371 23.2546C56.2414 23.5665 55.2119 23.7218 54.178 23.7162C51.1306 23.7162 48.5466 22.5746 46.4262 20.2915C44.3058 18.0085 43.2449 15.2715 43.2435 12.0808C43.2435 8.90231 44.3037 6.17154 46.4242 3.88847C48.5446 1.60539 51.1292 0.463083 54.178 0.461544C55.1915 0.456507 56.2006 0.611888 57.1753 0.923083C57.9981 1.17109 58.7873 1.54212 59.5216 2.02616C60.0855 2.41466 60.625 2.84566 61.1367 3.31616C61.5048 3.63933 61.8381 4.00952 62.1296 4.41924L62.4427 4.86231L59.2126 8.63077C59.157 8.55001 59.0849 8.44616 58.9922 8.31693C58.7968 8.07645 58.5869 7.8513 58.3639 7.64308C58.0404 7.32828 57.6961 7.04131 57.3339 6.78462C56.3729 6.16492 55.2867 5.82976 54.178 5.81077C52.5726 5.81077 51.2363 6.40616 50.1692 7.59693" fill="#14161F"/>
<path d="M64.0145 1.08923H80.27V6.44077H74.7965V23.0723H69.4735V6.44077H64.0145V1.08923Z" fill="#14161F"/>
<path d="M99.498 3.88847C101.62 6.17001 102.681 8.90078 102.681 12.0808C102.681 15.2608 101.62 17.9923 99.498 20.2754C97.3789 22.5569 94.7977 23.6985 91.7544 23.7C88.7111 23.7015 86.1293 22.56 84.0088 20.2754C81.8802 17.9892 80.8165 15.2577 80.8179 12.0808C80.8193 8.90386 81.8795 6.17309 83.9985 3.88847C86.1203 1.60386 88.7022 0.461548 91.7441 0.461548C94.7861 0.461548 97.3707 1.60386 99.498 3.88847ZM87.8507 7.59693C86.8029 8.7877 86.2783 10.2823 86.2769 12.0808C86.2755 13.8792 86.8001 15.3762 87.8507 16.5715C88.8884 17.7202 90.2884 18.3644 91.7472 18.3644C93.2061 18.3644 94.6061 17.7202 95.6437 16.5715C96.6875 15.3762 97.2093 13.8792 97.2093 12.0808C97.2093 10.2823 96.6875 8.7877 95.6437 7.59693C94.6037 6.45321 93.2046 5.81243 91.7472 5.81243C90.2899 5.81243 88.8907 6.45321 87.8507 7.59693Z" fill="#14161F"/>
<path d="M31.518 18.0438H41.6037V23.0723H26.1949V1.08923H41.3298V6.11769H31.518V9.56769H39.0864V14.2892H31.518V18.0438Z" fill="#14161F"/>
<path d="M11.194 17.7369L5.73503 10.0431V23.0723H0.411987V1.08923H5.17471L11.194 9.73616L17.2298 1.08923H21.9905V23.0723H16.6674V10.0431L11.194 17.7369Z" fill="#14161F"/>
</g>
<defs>
<clipPath id="clip0_248_127">
<rect width="103" height="24" fill="white"/>
</clipPath>
</defs>
</svg>
