<svg width="1600" height="404" viewBox="0 0 1600 404" fill="none" xmlns="http://www.w3.org/2000/svg">
<path d="M-136.106 143.395L-134.913 129.754C-137.582 131.309 -140.691 131.931 -144.24 131.62C-148.627 131.236 -152.011 129.612 -154.393 126.746C-156.748 123.858 -157.727 120.146 -157.33 115.612L-156.402 105.002L-148.86 105.662L-149.789 116.271C-149.987 118.539 -149.426 120.5 -148.105 122.155C-146.758 123.788 -145.025 124.697 -142.905 124.883C-141.353 125.018 -139.865 124.9 -138.442 124.528C-136.991 124.133 -135.936 123.704 -135.274 123.241L-134.285 122.582L-132.927 107.056L-125.386 107.715L-128.565 144.055L-136.106 143.395ZM-85.947 132.138L-114.339 129.654C-114.168 132.252 -113.106 134.58 -111.15 136.638C-109.17 138.699 -106.713 139.858 -103.78 140.114C-101.661 140.3 -99.6471 139.992 -97.7393 139.19C-95.8068 138.39 -94.4186 137.568 -93.5749 136.723L-92.3059 135.419L-87.8193 140.766C-87.9845 140.95 -88.2434 141.213 -88.5961 141.554C-88.9221 141.874 -89.628 142.42 -90.7139 143.194C-91.7977 143.944 -92.9355 144.602 -94.1274 145.168C-95.3172 145.71 -96.8487 146.184 -98.7221 146.591C-100.569 146.976 -102.453 147.085 -104.375 146.916C-109.526 146.466 -113.81 144.191 -117.226 140.093C-120.616 135.972 -122.078 131.262 -121.615 125.963C-121.169 120.861 -118.975 116.658 -115.036 113.352C-111.069 110.023 -106.547 108.581 -101.47 109.025C-96.3686 109.472 -92.2783 111.543 -89.1995 115.24C-86.0938 118.914 -84.7641 123.301 -85.2104 128.403L-85.947 132.138ZM-102.036 115.495C-104.772 115.255 -107.147 115.867 -109.163 117.33C-111.151 118.77 -112.578 120.744 -113.443 123.251L-92.4082 125.091C-92.6276 122.489 -93.5914 120.306 -95.2996 118.543C-97.0057 116.754 -99.2512 115.738 -102.036 115.495ZM-74.2896 112.186L-46.2677 114.637L-49.447 150.977L-57.0255 150.314L-54.4413 120.776L-67.3062 119.651L-67.6394 123.459C-68.2453 130.384 -69.2785 135.807 -70.739 139.727C-72.1727 143.625 -73.8114 146.176 -75.6552 147.38C-77.4743 148.587 -79.7394 149.072 -82.4504 148.835C-83.1158 148.776 -83.8251 148.652 -84.5783 148.462C-85.3069 148.274 -85.8742 148.088 -86.2803 147.903L-86.9328 147.697L-86.3021 140.489C-85.3132 140.823 -84.4501 141.036 -83.7129 141.125C-82.1602 141.261 -80.9036 140.948 -79.9431 140.188C-78.9579 139.43 -78.0445 137.647 -77.2029 134.84C-76.3345 132.011 -75.6728 127.996 -75.2178 122.796L-74.2896 112.186ZM-16.3702 144.223C-13.9226 142.078 -12.5511 139.317 -12.2557 135.94C-11.9582 132.539 -12.8283 129.57 -14.8662 127.033C-16.9041 124.495 -19.4634 123.091 -22.5441 122.822C-25.6248 122.552 -28.4012 123.489 -30.8734 125.632C-33.321 127.777 -34.6936 130.55 -34.9911 133.951C-35.2865 137.328 -34.4153 140.285 -32.3774 142.822C-30.3148 145.362 -27.7432 146.767 -24.6626 147.036C-21.5819 147.306 -18.8177 146.368 -16.3702 144.223ZM-38.0746 147.055C-41.4908 142.956 -42.9768 138.369 -42.5326 133.292C-42.0863 128.19 -39.8251 123.918 -35.7491 120.475C-31.6485 117.034 -27.0474 115.537 -21.9457 115.983C-16.8441 116.429 -12.5852 118.702 -9.16902 122.8C-5.72817 126.901 -4.23091 131.502 -4.67724 136.603C-5.12142 141.68 -7.39383 145.939 -11.4945 149.38C-15.5683 152.799 -20.1561 154.285 -25.2577 153.838C-30.3593 153.392 -34.6316 151.131 -38.0746 147.055ZM2.20344 118.878L19.6154 120.401C23.0904 120.705 25.772 121.846 27.6602 123.824C29.5505 125.778 30.376 128.122 30.1367 130.858C30.0008 132.411 29.5318 133.798 28.7296 135.019C27.9542 136.218 27.1876 137.032 26.4298 137.462L25.3332 138.074C25.4768 138.137 25.6787 138.241 25.939 138.388C26.1994 138.535 26.6642 138.898 27.3337 139.479C28.0053 140.034 28.5729 140.642 29.0365 141.304C29.527 141.943 29.9364 142.798 30.2648 143.87C30.6179 144.944 30.7416 146.085 30.6359 147.292C30.3621 150.422 29.0176 152.875 26.6023 154.65C24.2118 156.428 21.0818 157.147 17.2125 156.809L-0.975874 155.218L2.20344 118.878ZM18.6356 140.543L8.02569 139.615L7.16537 149.448L17.7752 150.376C19.2786 150.508 20.5127 150.169 21.4776 149.359C22.4424 148.55 22.9906 147.393 23.1222 145.89C23.2407 144.534 22.8861 143.336 22.0584 142.295C21.2306 141.254 20.0896 140.67 18.6356 140.543ZM21.2496 133.657C22 133.027 22.4259 132.133 22.5273 130.975C22.6308 129.792 22.3666 128.837 21.7347 128.111C21.105 127.361 20.211 126.935 19.0527 126.834L9.21914 125.973L8.55611 133.552L18.3896 134.412C19.548 134.514 20.5013 134.262 21.2496 133.657ZM69.9965 145.781L41.605 143.297C41.7751 145.895 42.8379 148.223 44.7936 150.282C46.7739 152.342 49.2304 153.501 52.1632 153.758C54.2827 153.943 56.2964 153.635 58.2043 152.833C60.1368 152.034 61.5249 151.212 62.3687 150.366L63.6376 149.062L68.1242 154.409C67.9591 154.593 67.7002 154.856 67.3474 155.198C67.0215 155.517 66.3156 156.064 65.2296 156.838C64.1459 157.587 63.008 158.245 61.8161 158.811C60.6264 159.353 59.0948 159.827 57.2214 160.235C55.3749 160.62 53.4904 160.728 51.5681 160.56C46.4172 160.109 42.1336 157.834 38.7174 153.736C35.328 149.615 33.8651 144.905 34.3287 139.606C34.775 134.505 36.9681 130.301 40.908 126.995C44.8746 123.667 49.3964 122.224 54.4734 122.669C59.575 123.115 63.6652 125.186 66.7441 128.883C69.8498 132.557 71.1794 136.945 70.7331 142.046L69.9965 145.781ZM53.9074 129.138C51.1717 128.899 48.7962 129.51 46.7809 130.973C44.7923 132.413 43.3655 134.387 42.5005 136.894L63.5354 138.734C63.316 136.133 62.3522 133.95 60.6439 132.186C58.9378 130.398 56.6923 129.382 53.9074 129.138ZM109.676 128.281L94.3388 142.212L107.606 164.717L99.2877 163.99L88.9919 146.698L82.7684 152.263L81.8757 162.466L74.2972 161.803L77.4765 125.463L85.055 126.126L83.6319 142.392L100.582 127.485L109.676 128.281ZM139.771 167.531L132.192 166.868L132.522 163.098C132.415 163.188 132.228 163.333 131.963 163.533C131.721 163.735 131.221 164.064 130.461 164.519C129.728 164.952 128.936 165.342 128.086 165.69C127.238 166.013 126.184 166.281 124.924 166.493C123.664 166.706 122.405 166.757 121.148 166.647C117.451 166.324 114.477 164.983 112.224 162.626C109.972 160.268 108.967 157.709 109.208 154.949C109.469 151.967 110.624 149.547 112.674 147.69C114.749 145.835 117.449 144.78 120.774 144.524L134.246 143.394C134.414 141.471 133.841 139.794 132.526 138.363C131.235 136.934 129.481 136.122 127.263 135.928C125.34 135.76 123.555 136.014 121.907 136.689C120.285 137.342 119.143 138.049 118.48 138.811L117.369 140.017L112.882 134.67C113.047 134.486 113.266 134.257 113.538 133.983C113.837 133.686 114.464 133.194 115.418 132.508C116.399 131.799 117.422 131.181 118.486 130.653C119.55 130.125 120.929 129.7 122.621 129.376C124.34 129.03 126.087 128.934 127.861 129.089C132.297 129.477 135.817 131.114 138.421 133.999C141.026 136.859 142.161 140.212 141.825 144.057L139.771 167.531ZM122.889 159.945C125.97 160.215 128.453 159.513 130.337 157.84C132.249 156.145 133.353 153.597 133.651 150.196L133.716 149.456L121.795 150.313C120.418 150.441 119.273 150.9 118.359 151.689C117.446 152.478 116.932 153.526 116.818 154.832C116.712 156.04 117.198 157.15 118.277 158.163C119.38 159.179 120.918 159.773 122.889 159.945Z" fill="#14161F"/>
<path d="M170.415 142.106L202.293 144.895M202.293 144.895L190.058 130.774M202.293 144.895L187.792 156.676" stroke="#14161F" stroke-width="3"/>
<path d="M237.328 140.027L238.484 140.128C238.585 140.061 238.718 139.945 238.885 139.779C239.061 139.605 239.375 139.211 239.827 138.596C240.279 137.973 240.69 137.284 241.059 136.529C241.438 135.776 241.813 134.738 242.185 133.415C242.557 132.083 242.809 130.665 242.941 129.16L243.471 123.095L256.618 124.245L255.102 141.582L257.556 141.796L256.924 149.019L253.736 148.74L254.115 144.409L240.249 143.196L239.87 147.527L236.696 147.249L237.328 140.027ZM246.115 129.438C245.983 130.943 245.736 132.352 245.375 133.666C245.024 134.972 244.643 136.019 244.233 136.807C243.823 137.596 243.422 138.281 243.03 138.862C242.639 139.435 242.31 139.837 242.043 140.07L241.658 140.405L251.914 141.303L253.177 126.858L246.392 126.264L246.115 129.438ZM262.002 131.127L272.695 132.062L271.482 145.929L268.59 145.676L269.576 134.405L264.667 133.975L264.54 135.428C264.309 138.071 263.914 140.14 263.357 141.636C262.81 143.123 262.185 144.097 261.481 144.556C260.787 145.017 259.923 145.202 258.888 145.111C258.634 145.089 258.364 145.042 258.076 144.969C257.798 144.897 257.582 144.826 257.427 144.756L257.178 144.677L257.419 141.926C257.796 142.054 258.125 142.135 258.407 142.169C258.999 142.221 259.478 142.102 259.845 141.812C260.221 141.523 260.569 140.842 260.891 139.771C261.222 138.691 261.474 137.159 261.648 135.175L262.002 131.127ZM279.637 132.669L285.985 133.225L284.771 147.091L281.894 146.84L282.273 142.509L279.24 142.244L276.11 146.334L272.936 146.056L276.386 141.553C276.313 141.528 276.213 141.477 276.087 141.399C275.971 141.323 275.767 141.158 275.476 140.905C275.187 140.643 274.933 140.351 274.715 140.028C274.506 139.707 274.321 139.274 274.16 138.729C274.01 138.176 273.961 137.593 274.014 136.982C274.135 135.6 274.71 134.503 275.738 133.693C276.776 132.874 278.076 132.533 279.637 132.669ZM282.892 135.428L279.422 135.124C278.764 135.066 278.194 135.239 277.714 135.643C277.233 136.046 276.964 136.577 276.906 137.235C276.849 137.893 277.022 138.463 277.425 138.943C277.828 139.424 278.359 139.693 279.017 139.751L282.487 140.054L282.892 135.428Z" fill="#14161F"/>
<rect x="228.536" y="114.566" width="72" height="38" rx="19" transform="rotate(5 228.536 114.566)" stroke="#14161F" stroke-width="3"/>
<path d="M347.265 167.767C346.819 172.869 344.638 177.073 340.723 180.381C336.832 183.692 332.422 185.131 327.493 184.7C321.8 184.202 317.394 181.768 314.275 177.397C311.182 173.004 309.975 166.938 310.652 159.199C311.424 150.376 313.642 143.903 317.305 139.778C320.969 135.653 325.877 133.351 332.028 132.871C334.753 132.662 337.206 132.305 339.385 131.801C341.59 131.298 343.119 130.848 343.974 130.451L345.258 129.819L348.161 135.809C347.996 135.994 347.663 136.25 347.163 136.579C346.687 136.91 345.088 137.44 342.367 138.171C339.67 138.903 336.272 139.426 332.172 139.737C328.648 140 325.724 141.197 323.402 143.328C321.08 145.46 319.563 148.456 318.853 152.318C318.965 152.179 319.154 151.996 319.422 151.772C319.717 151.524 320.287 151.115 321.132 150.543C321.979 149.946 322.855 149.439 323.761 149.022C324.693 148.582 325.854 148.224 327.244 147.949C328.661 147.65 330.072 147.563 331.477 147.686C336.061 148.087 339.942 150.276 343.12 154.255C346.326 158.211 347.707 162.715 347.265 167.767ZM322.377 157.171C320.086 159.23 318.795 161.923 318.504 165.251C318.213 168.578 319.017 171.454 320.915 173.88C322.814 176.306 325.193 177.644 328.052 177.895C330.935 178.147 333.522 177.243 335.813 175.184C338.104 173.124 339.396 170.431 339.687 167.104C339.978 163.777 339.174 160.9 337.275 158.474C335.379 156.023 332.989 154.672 330.105 154.42C327.246 154.17 324.67 155.087 322.377 157.171ZM370.971 188.504C369.615 188.385 368.311 188.11 367.057 187.677C365.804 187.245 364.742 186.754 363.871 186.206C363.002 185.634 362.232 185.069 361.56 184.514C360.915 183.936 360.446 183.485 360.151 183.161L359.682 182.562L357.926 202.635L350.347 201.972L354.918 149.736L362.496 150.399L362.131 154.577C362.506 154.262 363.026 153.848 363.692 153.335C364.382 152.824 365.79 152.202 367.916 151.47C370.041 150.737 372.163 150.463 374.283 150.648C379.089 151.069 383.092 153.282 386.293 157.287C389.521 161.269 390.905 165.885 390.446 171.135C389.986 176.384 387.82 180.702 383.948 184.089C380.102 187.452 375.777 188.924 370.971 188.504ZM380.287 161.641C378.276 159.081 375.829 157.675 372.945 157.423C370.062 157.17 367.407 158.13 364.982 160.302C362.557 162.474 361.198 165.236 360.905 168.588C360.614 171.915 361.474 174.858 363.485 177.418C365.496 179.978 367.943 181.385 370.827 181.637C373.71 181.889 376.364 180.929 378.79 178.757C381.215 176.586 382.573 173.836 382.864 170.509C383.157 167.157 382.298 164.201 380.287 161.641ZM429.143 177.203L400.752 174.719C400.922 177.316 401.984 179.644 403.94 181.703C405.92 183.763 408.377 184.922 411.31 185.179C413.429 185.364 415.443 185.056 417.351 184.254C419.283 183.455 420.671 182.633 421.515 181.788L422.784 180.483L427.271 185.83C427.106 186.014 426.847 186.277 426.494 186.619C426.168 186.938 425.462 187.485 424.376 188.259C423.292 189.008 422.155 189.666 420.963 190.233C419.773 190.774 418.241 191.249 416.368 191.656C414.521 192.041 412.637 192.149 410.715 191.981C405.564 191.53 401.28 189.256 397.864 185.157C394.475 181.036 393.012 176.326 393.475 171.027C393.922 165.926 396.115 161.722 400.054 158.416C404.021 155.088 408.543 153.646 413.62 154.09C418.722 154.536 422.812 156.608 425.891 160.304C428.996 163.978 430.326 168.366 429.88 173.467L429.143 177.203ZM413.054 160.559C410.318 160.32 407.943 160.932 405.927 162.394C403.939 163.835 402.512 165.808 401.647 168.315L422.682 170.156C422.463 167.554 421.499 165.371 419.79 163.607C418.084 161.819 415.839 160.803 413.054 160.559ZM442.348 178.73L441.022 193.887L433.444 193.224L436.623 156.885L444.202 157.548L442.943 171.928L460.725 173.484L461.983 159.103L469.562 159.766L466.382 196.106L458.804 195.443L460.13 180.286L442.348 178.73ZM469.272 189.505L471.897 189.734C472.058 189.599 472.288 189.384 472.587 189.087C472.913 188.768 473.472 188.059 474.263 186.961C475.079 185.865 475.804 184.675 476.438 183.389C477.099 182.081 477.735 180.349 478.346 178.192C478.981 176.037 479.405 173.752 479.616 171.337L480.544 160.727L507.05 163.046L504.466 192.584L509.753 193.046L508.362 208.943L500.82 208.283L501.616 199.189L476.256 196.97L475.46 206.064L467.882 205.401L469.272 189.505ZM487.528 168.192L487.194 172C486.983 174.415 486.573 176.689 485.964 178.821C485.38 180.956 484.718 182.71 483.976 184.086C483.262 185.439 482.552 186.606 481.845 187.587C481.163 188.571 480.605 189.267 480.172 189.676L479.476 190.397L496.888 191.921L498.877 169.185L487.528 168.192ZM542.912 202.802L535.334 202.139L535.664 198.368C535.557 198.458 535.37 198.603 535.104 198.803C534.863 199.006 534.362 199.334 533.602 199.789C532.869 200.222 532.078 200.612 531.228 200.96C530.38 201.283 529.326 201.551 528.066 201.763C526.805 201.976 525.547 202.027 524.29 201.917C520.593 201.594 517.618 200.253 515.366 197.896C513.114 195.538 512.108 192.979 512.35 190.219C512.611 187.237 513.766 184.817 515.816 182.96C517.89 181.105 520.59 180.05 523.916 179.795L537.388 178.664C537.556 176.741 536.982 175.065 535.667 173.633C534.377 172.204 532.622 171.393 530.404 171.199C528.482 171.03 526.697 171.284 525.048 171.959C523.426 172.612 522.284 173.319 521.622 174.081L520.51 175.287L516.024 169.94C516.189 169.756 516.408 169.527 516.68 169.253C516.979 168.956 517.606 168.465 518.56 167.778C519.541 167.069 520.563 166.451 521.628 165.923C522.692 165.396 524.07 164.97 525.762 164.646C527.481 164.3 529.228 164.204 531.003 164.36C535.439 164.748 538.959 166.384 541.562 169.269C544.168 172.13 545.303 175.482 544.966 179.327L542.912 202.802ZM526.031 195.215C529.112 195.485 531.594 194.783 533.479 193.111C535.39 191.415 536.495 188.867 536.793 185.466L536.857 184.727L524.936 185.583C523.559 185.711 522.414 186.17 521.501 186.959C520.587 187.748 520.073 188.796 519.959 190.102C519.854 191.31 520.34 192.42 521.419 193.434C522.522 194.449 524.059 195.043 526.031 195.215Z" fill="#14161F"/>
<path d="M573.874 177.403L605.752 180.192M605.752 180.192L593.516 166.072M605.752 180.192L591.25 191.973" stroke="#14161F" stroke-width="3"/>
<path d="M640.787 175.325L641.943 175.426C642.044 175.359 642.177 175.243 642.343 175.077C642.52 174.903 642.834 174.509 643.286 173.894C643.738 173.271 644.149 172.582 644.518 171.828C644.897 171.074 645.272 170.036 645.644 168.714C646.016 167.382 646.268 165.963 646.4 164.459L646.93 158.393L660.077 159.543L658.561 176.88L661.015 177.094L660.383 184.317L657.195 184.038L657.574 179.707L643.708 178.494L643.329 182.825L640.155 182.547L640.787 175.325ZM649.573 164.736C649.442 166.241 649.195 167.65 648.834 168.964C648.483 170.27 648.102 171.317 647.692 172.105C647.282 172.894 646.881 173.579 646.489 174.161C646.098 174.733 645.769 175.135 645.502 175.368L645.117 175.704L655.373 176.601L656.636 162.156L649.851 161.562L649.573 164.736ZM665.461 166.425L676.154 167.36L674.941 181.227L672.049 180.974L673.035 169.703L668.126 169.273L667.999 170.726C667.768 173.369 667.373 175.438 666.816 176.934C666.269 178.421 665.644 179.395 664.94 179.854C664.246 180.315 663.382 180.5 662.347 180.409C662.093 180.387 661.823 180.34 661.535 180.267C661.257 180.195 661.041 180.124 660.886 180.054L660.637 179.975L660.877 177.225C661.255 177.352 661.584 177.433 661.865 177.467C662.458 177.519 662.937 177.4 663.304 177.11C663.68 176.821 664.028 176.14 664.349 175.069C664.681 173.99 664.933 172.458 665.107 170.473L665.461 166.425ZM683.096 167.968L689.443 168.523L688.23 182.389L685.353 182.138L685.732 177.807L682.699 177.542L679.569 181.632L676.395 181.354L679.845 176.851C679.772 176.826 679.672 176.775 679.546 176.697C679.429 176.621 679.226 176.456 678.935 176.203C678.646 175.941 678.392 175.649 678.173 175.326C677.965 175.005 677.78 174.572 677.619 174.027C677.468 173.474 677.42 172.891 677.473 172.28C677.594 170.898 678.169 169.801 679.197 168.991C680.235 168.172 681.535 167.831 683.096 167.968ZM686.351 170.726L682.881 170.422C682.223 170.364 681.653 170.537 681.172 170.941C680.692 171.344 680.423 171.875 680.365 172.533C680.307 173.191 680.48 173.761 680.884 174.242C681.287 174.722 681.818 174.991 682.476 175.049L685.946 175.353L686.351 170.726Z" fill="#14161F"/>
<rect x="631.995" y="149.864" width="72" height="38" rx="19" transform="rotate(5 631.995 149.864)" stroke="#14161F" stroke-width="3"/>
<path d="M742.514 183.647L749.316 184.242L746.137 220.581L738.558 219.918L740.645 196.074L719.631 218.262L712.829 217.667L716.008 181.328L723.586 181.991L721.5 205.835L742.514 183.647ZM749.027 213.98L751.652 214.21C751.813 214.075 752.042 213.859 752.342 213.562C752.668 213.243 753.226 212.535 754.018 211.437C754.834 210.341 755.559 209.15 756.193 207.865C756.854 206.557 757.489 204.824 758.1 202.667C758.736 200.513 759.159 198.228 759.37 195.812L760.299 185.203L786.805 187.522L784.221 217.059L789.507 217.522L788.116 233.418L780.575 232.758L781.37 223.664L756.01 221.445L755.215 230.539L747.636 229.876L749.027 213.98ZM767.282 192.668L766.949 196.476C766.738 198.891 766.328 201.164 765.719 203.297C765.135 205.431 764.472 207.186 763.731 208.561C763.017 209.914 762.306 211.082 761.599 212.063C760.917 213.046 760.36 213.742 759.927 214.151L759.23 214.873L776.642 216.396L778.631 193.661L767.282 192.668ZM828.535 212.145L800.144 209.661C800.314 212.259 801.377 214.587 803.332 216.645C805.313 218.706 807.769 219.864 810.702 220.121C812.822 220.306 814.835 219.998 816.743 219.197C818.676 218.397 820.064 217.575 820.908 216.73L822.176 215.425L826.663 220.772C826.498 220.957 826.239 221.22 825.886 221.561C825.56 221.88 824.854 222.427 823.768 223.201C822.685 223.951 821.547 224.609 820.355 225.175C819.165 225.717 817.634 226.191 815.76 226.598C813.914 226.983 812.029 227.091 810.107 226.923C804.956 226.473 800.673 224.198 797.256 220.099C793.867 215.978 792.404 211.269 792.868 205.97C793.314 200.868 795.507 196.664 799.447 193.359C803.413 190.03 807.935 188.588 813.012 189.032C818.114 189.479 822.204 191.55 825.283 195.246C828.389 198.92 829.718 203.308 829.272 208.41L828.535 212.145ZM812.446 195.502C809.711 195.262 807.335 195.874 805.32 197.337C803.331 198.777 801.904 200.751 801.039 203.258L822.074 205.098C821.855 202.496 820.891 200.313 819.183 198.55C817.477 196.761 815.231 195.745 812.446 195.502ZM862.522 194.146L869.324 194.741L866.144 231.081L858.566 230.418L860.652 206.573L839.638 228.762L832.836 228.167L836.015 191.827L843.594 192.49L841.508 216.334L862.522 194.146Z" fill="#14161F"/>
<path d="M896.641 205.642L928.519 208.431M928.519 208.431L916.283 194.311M928.519 208.431L914.017 220.212" stroke="#14161F" stroke-width="3"/>
<path d="M963.554 203.563L964.71 203.664C964.811 203.597 964.944 203.481 965.11 203.316C965.287 203.142 965.601 202.747 966.053 202.133C966.505 201.509 966.916 200.82 967.285 200.066C967.664 199.313 968.039 198.275 968.411 196.952C968.783 195.62 969.035 194.202 969.167 192.697L969.697 186.631L982.844 187.782L981.328 205.118L983.782 205.333L983.15 212.555L979.962 212.276L980.341 207.946L966.475 206.733L966.096 211.063L962.922 210.786L963.554 203.563ZM972.341 192.975C972.209 194.479 971.962 195.889 971.601 197.203C971.25 198.508 970.869 199.555 970.459 200.344C970.049 201.132 969.648 201.817 969.256 202.399C968.865 202.971 968.536 203.374 968.269 203.606L967.884 203.942L978.14 204.839L979.403 190.395L972.618 189.801L972.341 192.975ZM988.228 194.663L998.921 195.599L997.708 209.465L994.816 209.212L995.802 197.941L990.893 197.512L990.766 198.965C990.535 201.607 990.14 203.677 989.583 205.172C989.036 206.66 988.411 207.633 987.707 208.093C987.013 208.553 986.149 208.738 985.114 208.648C984.86 208.626 984.59 208.578 984.302 208.506C984.024 208.434 983.808 208.363 983.653 208.292L983.404 208.214L983.644 205.463C984.022 205.591 984.351 205.672 984.632 205.706C985.225 205.758 985.704 205.639 986.071 205.348C986.447 205.059 986.795 204.379 987.117 203.308C987.448 202.228 987.7 200.696 987.874 198.712L988.228 194.663ZM1005.86 196.206L1012.21 196.761L1011 210.628L1008.12 210.376L1008.5 206.046L1005.47 205.78L1002.34 209.87L999.162 209.592L1002.61 205.09C1002.54 205.065 1002.44 205.013 1002.31 204.936C1002.2 204.859 1001.99 204.695 1001.7 204.442C1001.41 204.179 1001.16 203.887 1000.94 203.565C1000.73 203.243 1000.55 202.81 1000.39 202.266C1000.24 201.712 1000.19 201.13 1000.24 200.519C1000.36 199.136 1000.94 198.04 1001.96 197.23C1003 196.411 1004.3 196.07 1005.86 196.206ZM1009.12 198.964L1005.65 198.661C1004.99 198.603 1004.42 198.776 1003.94 199.179C1003.46 199.583 1003.19 200.113 1003.13 200.772C1003.07 201.43 1003.25 201.999 1003.65 202.48C1004.05 202.961 1004.58 203.23 1005.24 203.287L1008.71 203.591L1009.12 198.964Z" fill="#14161F"/>
<rect x="954.762" y="178.103" width="72" height="38" rx="19" transform="rotate(5 954.762 178.103)" stroke="#14161F" stroke-width="3"/>
<path d="M1073.49 231.304C1073.04 236.405 1070.86 240.61 1066.95 243.918C1063.06 247.228 1058.65 248.668 1053.72 248.237C1048.03 247.738 1043.62 245.304 1040.5 240.934C1037.41 236.541 1036.2 230.475 1036.88 222.736C1037.65 213.913 1039.87 207.439 1043.53 203.314C1047.2 199.19 1052.1 196.887 1058.25 196.407C1060.98 196.199 1063.43 195.842 1065.61 195.337C1067.82 194.835 1069.35 194.385 1070.2 193.988L1071.48 193.355L1074.39 199.346C1074.22 199.53 1073.89 199.787 1073.39 200.115C1072.91 200.446 1071.31 200.977 1068.59 201.707C1065.9 202.44 1062.5 202.962 1058.4 203.274C1054.87 203.537 1051.95 204.734 1049.63 206.865C1047.31 208.996 1045.79 211.993 1045.08 215.854C1045.19 215.715 1045.38 215.533 1045.65 215.308C1045.94 215.061 1046.51 214.651 1047.36 214.079C1048.2 213.483 1049.08 212.976 1049.99 212.559C1050.92 212.119 1052.08 211.761 1053.47 211.485C1054.89 211.187 1056.3 211.099 1057.7 211.222C1062.29 211.623 1066.17 213.813 1069.35 217.791C1072.55 221.747 1073.93 226.251 1073.49 231.304ZM1048.6 220.707C1046.31 222.767 1045.02 225.46 1044.73 228.787C1044.44 232.114 1045.24 234.991 1047.14 237.417C1049.04 239.843 1051.42 241.181 1054.28 241.431C1057.16 241.683 1059.75 240.78 1062.04 238.72C1064.33 236.661 1065.62 233.968 1065.91 230.64C1066.2 227.313 1065.4 224.437 1063.5 222.011C1061.6 219.56 1059.21 218.209 1056.33 217.956C1053.47 217.706 1050.9 218.623 1048.6 220.707ZM1086.36 254.147L1088.2 250.509L1076.6 212.875L1084.54 213.571L1092.84 241.005L1105.76 215.427L1113.71 216.122L1093.9 254.807C1091.63 259.128 1089.5 262.108 1087.49 263.745C1085.51 265.385 1083.14 266.084 1080.38 265.842C1079.37 265.754 1078.43 265.609 1077.55 265.408C1076.67 265.207 1076.03 265.015 1075.63 264.83L1075.12 264.637L1075.72 257.798C1076.93 258.401 1078.18 258.771 1079.46 258.907C1082.35 259.135 1084.65 257.548 1086.36 254.147ZM1108.84 245.46L1111.46 245.689C1111.62 245.554 1111.85 245.339 1112.15 245.042C1112.48 244.723 1113.04 244.014 1113.83 242.916C1114.65 241.82 1115.37 240.63 1116 239.344C1116.67 238.036 1117.3 236.304 1117.91 234.147C1118.55 231.992 1118.97 229.707 1119.18 227.292L1120.11 216.682L1146.62 219.001L1144.03 248.539L1149.32 249.001L1147.93 264.898L1140.39 264.238L1141.18 255.144L1115.82 252.925L1115.03 262.019L1107.45 261.356L1108.84 245.46ZM1127.09 224.147L1126.76 227.955C1126.55 230.37 1126.14 232.644 1125.53 234.776C1124.95 236.91 1124.28 238.665 1123.54 240.041C1122.83 241.394 1122.12 242.561 1121.41 243.542C1120.73 244.526 1120.17 245.222 1119.74 245.631L1119.04 246.352L1136.45 247.876L1138.44 225.14L1127.09 224.147ZM1161.71 260.739L1163.55 257.101L1151.94 219.467L1159.89 220.163L1168.18 247.597L1181.11 222.019L1189.06 222.714L1169.25 261.399C1166.98 265.72 1164.85 268.7 1162.84 270.337C1160.86 271.977 1158.49 272.676 1155.73 272.434C1154.72 272.346 1153.77 272.201 1152.9 272C1152.02 271.799 1151.38 271.607 1150.97 271.422L1150.47 271.229L1151.07 264.39C1152.28 264.993 1153.53 265.363 1154.81 265.499C1157.69 265.727 1159.99 264.14 1161.71 260.739ZM1188.88 259.316L1192.06 222.977L1199.64 223.64L1197.05 253.177L1210.29 254.335L1212.87 224.798L1220.45 225.461L1217.86 254.998L1231.14 256.159L1233.72 226.622L1241.26 227.281L1238.68 256.819L1244 257.285L1242.61 273.181L1235.03 272.518L1235.83 263.424L1188.88 259.316ZM1282.99 251.905L1254.6 249.421C1254.77 252.018 1255.83 254.347 1257.79 256.405C1259.77 258.466 1262.23 259.624 1265.16 259.881C1267.28 260.066 1269.29 259.758 1271.2 258.957C1273.13 258.157 1274.52 257.335 1275.36 256.49L1276.63 255.185L1281.12 260.532C1280.95 260.716 1280.7 260.979 1280.34 261.321C1280.02 261.64 1279.31 262.187 1278.23 262.961C1277.14 263.711 1276 264.369 1274.81 264.935C1273.62 265.476 1272.09 265.951 1270.22 266.358C1268.37 266.743 1266.49 266.851 1264.56 266.683C1259.41 266.232 1255.13 263.958 1251.71 259.859C1248.32 255.738 1246.86 251.028 1247.32 245.73C1247.77 240.628 1249.96 236.424 1253.9 233.118C1257.87 229.79 1262.39 228.348 1267.47 228.792C1272.57 229.238 1276.66 231.31 1279.74 235.006C1282.85 238.68 1284.17 243.068 1283.73 248.17L1282.99 251.905ZM1266.9 235.261C1264.17 235.022 1261.79 235.634 1259.78 237.097C1257.79 238.537 1256.36 240.51 1255.5 243.018L1276.53 244.858C1276.31 242.256 1275.35 240.073 1273.64 238.309C1271.93 236.521 1269.69 235.505 1266.9 235.261ZM1315.83 233.806L1315.24 240.608L1297.46 239.052L1294.87 268.59L1287.29 267.927L1290.47 231.587L1315.83 233.806ZM1341.18 262.993C1343.63 260.848 1345 258.087 1345.3 254.711C1345.59 251.31 1344.72 248.341 1342.69 245.803C1340.65 243.266 1338.09 241.862 1335.01 241.592C1331.93 241.323 1329.15 242.26 1326.68 244.403C1324.23 246.548 1322.86 249.321 1322.56 252.722C1322.27 256.098 1323.14 259.055 1325.18 261.593C1327.24 264.132 1329.81 265.537 1332.89 265.807C1335.97 266.076 1338.73 265.138 1341.18 262.993ZM1319.48 265.825C1316.06 261.727 1314.58 257.139 1315.02 252.062C1315.47 246.96 1317.73 242.688 1321.8 239.245C1325.9 235.804 1330.51 234.307 1335.61 234.753C1340.71 235.2 1344.97 237.472 1348.38 241.571C1351.82 245.671 1353.32 250.272 1352.88 255.374C1352.43 260.451 1350.16 264.71 1346.06 268.151C1341.98 271.569 1337.4 273.055 1332.3 272.609C1327.19 272.162 1322.92 269.901 1319.48 265.825Z" fill="#14161F"/>
<path d="M1379.79 247.912L1411.67 250.701M1411.67 250.701L1399.44 236.581M1411.67 250.701L1397.17 262.482" stroke="#14161F" stroke-width="3"/>
<path d="M1446.71 245.834L1447.86 245.935C1447.97 245.868 1448.1 245.752 1448.26 245.586C1448.44 245.412 1448.76 245.018 1449.21 244.404C1449.66 243.78 1450.07 243.091 1450.44 242.337C1450.82 241.583 1451.19 240.545 1451.56 239.223C1451.94 237.891 1452.19 236.472 1452.32 234.968L1452.85 228.902L1466 230.052L1464.48 247.389L1466.94 247.603L1466.3 254.826L1463.12 254.547L1463.5 250.216L1449.63 249.003L1449.25 253.334L1446.08 253.056L1446.71 245.834ZM1455.49 235.245C1455.36 236.75 1455.12 238.159 1454.76 239.473C1454.4 240.779 1454.02 241.826 1453.61 242.614C1453.2 243.403 1452.8 244.088 1452.41 244.67C1452.02 245.242 1451.69 245.644 1451.42 245.877L1451.04 246.213L1461.29 247.11L1462.56 232.665L1455.77 232.071L1455.49 235.245ZM1471.38 236.934L1482.08 237.869L1480.86 251.736L1477.97 251.483L1478.96 240.212L1474.05 239.782L1473.92 241.235C1473.69 243.878 1473.29 245.947 1472.74 247.443C1472.19 248.93 1471.57 249.904 1470.86 250.363C1470.17 250.824 1469.3 251.009 1468.27 250.918C1468.01 250.896 1467.74 250.849 1467.46 250.776C1467.18 250.704 1466.96 250.633 1466.81 250.563L1466.56 250.484L1466.8 247.734C1467.18 247.861 1467.51 247.942 1467.79 247.976C1468.38 248.028 1468.86 247.909 1469.23 247.619C1469.6 247.33 1469.95 246.649 1470.27 245.578C1470.6 244.499 1470.85 242.967 1471.03 240.982L1471.38 236.934ZM1489.02 238.477L1495.36 239.032L1494.15 252.898L1491.27 252.647L1491.65 248.316L1488.62 248.051L1485.49 252.141L1482.32 251.863L1485.77 247.36C1485.69 247.335 1485.59 247.284 1485.47 247.206C1485.35 247.13 1485.15 246.965 1484.86 246.712C1484.57 246.45 1484.31 246.158 1484.09 245.835C1483.89 245.514 1483.7 245.081 1483.54 244.536C1483.39 243.983 1483.34 243.4 1483.39 242.789C1483.52 241.407 1484.09 240.31 1485.12 239.5C1486.16 238.681 1487.46 238.34 1489.02 238.477ZM1492.27 241.235L1488.8 240.931C1488.14 240.874 1487.57 241.046 1487.09 241.45C1486.61 241.853 1486.34 242.384 1486.29 243.042C1486.23 243.7 1486.4 244.27 1486.81 244.751C1487.21 245.231 1487.74 245.5 1488.4 245.558L1491.87 245.862L1492.27 241.235Z" fill="#14161F"/>
<rect x="1437.92" y="220.373" width="72" height="38" rx="19" transform="rotate(5 1437.92 220.373)" stroke="#14161F" stroke-width="3"/>
<path d="M1537.98 290.604C1536.63 290.485 1535.32 290.21 1534.07 289.777C1532.82 289.345 1531.75 288.855 1530.88 288.307C1530.01 287.734 1529.24 287.17 1528.57 286.614C1527.93 286.036 1527.46 285.586 1527.16 285.262L1526.69 284.662L1524.94 304.736L1517.36 304.073L1521.93 251.837L1529.51 252.5L1529.14 256.677C1529.52 256.362 1530.04 255.948 1530.7 255.435C1531.39 254.925 1532.8 254.303 1534.93 253.57C1537.05 252.837 1539.18 252.563 1541.29 252.749C1546.1 253.169 1550.1 255.382 1553.3 259.387C1556.53 263.37 1557.92 267.986 1557.46 273.235C1557 278.485 1554.83 282.803 1550.96 286.189C1547.11 289.553 1542.79 291.025 1537.98 290.604ZM1547.3 263.742C1545.29 261.182 1542.84 259.775 1539.96 259.523C1537.07 259.271 1534.42 260.231 1531.99 262.403C1529.57 264.574 1528.21 267.336 1527.92 270.688C1527.63 274.015 1528.49 276.959 1530.5 279.519C1532.51 282.079 1534.95 283.485 1537.84 283.737C1540.72 283.99 1543.38 283.03 1545.8 280.858C1548.23 278.686 1549.58 275.936 1549.88 272.609C1550.17 269.257 1549.31 266.302 1547.3 263.742ZM1586.61 284.466C1589.06 282.321 1590.43 279.56 1590.73 276.183C1591.03 272.782 1590.16 269.813 1588.12 267.275C1586.08 264.738 1583.52 263.334 1580.44 263.065C1577.36 262.795 1574.58 263.732 1572.11 265.875C1569.66 268.02 1568.29 270.793 1567.99 274.194C1567.7 277.571 1568.57 280.528 1570.61 283.065C1572.67 285.605 1575.24 287.01 1578.32 287.279C1581.4 287.549 1584.17 286.611 1586.61 284.466ZM1564.91 287.298C1561.49 283.199 1560.01 278.611 1560.45 273.535C1560.9 268.433 1563.16 264.161 1567.24 260.718C1571.34 257.277 1575.94 255.779 1581.04 256.226C1586.14 256.672 1590.4 258.945 1593.82 263.043C1597.26 267.144 1598.75 271.745 1598.31 276.846C1597.86 281.923 1595.59 286.182 1591.49 289.623C1587.42 293.042 1582.83 294.528 1577.73 294.081C1572.62 293.635 1568.35 291.374 1564.91 287.298ZM1605.8 290.875C1602.38 286.777 1600.9 282.189 1601.34 277.112C1601.79 272.01 1604.05 267.738 1608.12 264.295C1612.23 260.854 1616.83 259.357 1621.93 259.803C1624.76 260.051 1627.35 260.898 1629.68 262.344C1632.01 263.765 1633.66 265.126 1634.61 266.426L1636.05 268.302L1630.7 272.789C1630.49 272.373 1630.15 271.859 1629.68 271.247C1629.24 270.612 1628.21 269.728 1626.6 268.593C1625.01 267.461 1623.25 266.81 1621.33 266.642C1618.25 266.373 1615.47 267.309 1613 269.452C1610.55 271.598 1609.18 274.371 1608.88 277.772C1608.59 281.148 1609.46 284.105 1611.5 286.643C1613.56 289.182 1616.13 290.587 1619.21 290.856C1621.13 291.025 1622.97 290.701 1624.73 289.887C1626.52 289.075 1627.82 288.245 1628.64 287.398L1629.91 286.093L1634.4 291.44C1634.23 291.624 1633.98 291.888 1633.66 292.232C1633.33 292.551 1632.64 293.099 1631.58 293.875C1630.52 294.627 1629.42 295.288 1628.27 295.859C1627.13 296.405 1625.67 296.885 1623.9 297.301C1622.13 297.693 1620.37 297.812 1618.62 297.659C1613.51 297.212 1609.24 294.951 1605.8 290.875ZM1637.13 268.769L1637.72 261.967L1670.25 264.813L1669.66 271.616L1657.16 270.522L1654.58 300.06L1647.04 299.4L1649.62 269.863L1637.13 268.769ZM1700.02 304.035L1692.44 303.372L1692.77 299.601C1692.66 299.691 1692.47 299.836 1692.21 300.037C1691.97 300.239 1691.47 300.568 1690.71 301.023C1689.97 301.455 1689.18 301.846 1688.33 302.193C1687.48 302.517 1686.43 302.784 1685.17 302.997C1683.91 303.21 1682.65 303.261 1681.39 303.151C1677.7 302.828 1674.72 301.487 1672.47 299.129C1670.22 296.772 1669.21 294.213 1669.45 291.453C1669.72 288.47 1670.87 286.051 1672.92 284.194C1674.99 282.339 1677.69 281.284 1681.02 281.028L1694.49 279.897C1694.66 277.975 1694.09 276.298 1692.77 274.867C1691.48 273.438 1689.73 272.626 1687.51 272.432C1685.59 272.264 1683.8 272.518 1682.15 273.193C1680.53 273.846 1679.39 274.553 1678.73 275.314L1677.61 276.521L1673.13 271.174C1673.29 270.99 1673.51 270.761 1673.78 270.486C1674.08 270.19 1674.71 269.698 1675.66 269.012C1676.64 268.303 1677.67 267.685 1678.73 267.157C1679.8 266.629 1681.17 266.203 1682.87 265.88C1684.59 265.533 1686.33 265.438 1688.11 265.593C1692.54 265.981 1696.06 267.618 1698.67 270.503C1701.27 273.363 1702.41 276.716 1702.07 280.56L1700.02 304.035ZM1683.14 296.449C1686.22 296.719 1688.7 296.017 1690.58 294.344C1692.49 292.649 1693.6 290.101 1693.9 286.7L1693.96 285.96L1682.04 286.817C1680.66 286.945 1679.52 287.403 1678.61 288.193C1677.69 288.982 1677.18 290.03 1677.06 291.336C1676.96 292.544 1677.44 293.654 1678.52 294.667C1679.63 295.683 1681.16 296.277 1683.14 296.449Z" fill="#14161F"/>
</svg>
